<?xml version="1.0" standalone="no"?>
 <!DOCTYPE svg PUBLIC "-//W3C//DTD SVG 1.1//EN" 
 "http://www.w3.org/Graphics/SVG/1.1/DTD/svg11.dtd"> 
<svg xmlns="http://www.w3.org/2000/svg" version="1.1" 
    width="12.192cm" height="10.922cm" viewBox="0 0 48000 43000 ">
<title>SVG Picture created as shield2018-B.SilkS.svg date 2018/05/18 14:06:13 </title>
  <desc>Picture generated by PCBNEW </desc>
<g style="fill:#000000; fill-opacity:1;stroke:#000000; stroke-opacity:1;
stroke-linecap:round; stroke-linejoin:round; "
 transform="translate(0 0) scale(1 1)">
</g>
<g style="fill:#C2C200; fill-opacity:0.0; 
stroke:#C2C200; stroke-width:-0.000393701; stroke-opacity:1; 
stroke-linecap:round; stroke-linejoin:round;">
</g>
<g style="fill:#C2C200; fill-opacity:0.0; 
stroke:#C2C200; stroke-width:59.0551; stroke-opacity:1; 
stroke-linecap:round; stroke-linejoin:round;">
<circle cx="44000" cy="3700" r="316.228" /> 
<circle cx="4400" cy="37000" r="565.685" /> 
<circle cx="4600" cy="4800" r="800" /> 
<path d="M2800 10200
L2800 39000
" />
<path d="M2800 10200
L2800 3000
" />
<path d="M2800 39000
L44600 39000
" />
<path d="M44600 3000
L2800 3000
" />
<path d="M44600 39000
L44600 3000
" />
</g>
<g style="fill:#000084; fill-opacity:0.0; 
stroke:#000084; stroke-width:59.0551; stroke-opacity:1; 
stroke-linecap:round; stroke-linejoin:round;">
<path d="M29162 26700
L29481 26700
L29518 26718
L29537 26737
L29556 26775
L29556 26850
L29537 26887
L29518 26906
L29481 26925
L29162 26925
" />
<path d="M29556 27318
L29556 27093
" />
<path d="M29556 27206
L29162 27206
L29218 27168
L29256 27131
L29274 27093
" />
</g>
<g style="fill:#840084; fill-opacity:0.0; 
stroke:#840084; stroke-width:59.0551; stroke-opacity:1; 
stroke-linecap:round; stroke-linejoin:round;">
<path d="M28994 27816
L28994 28368
" />
<path d="M26986 27816
L26986 26183
" />
<path d="M29013 27816
L29013 26183
" />
<path d="M26986 27816
L27043 27816
" />
<path d="M26986 26183
L27043 26183
" />
<path d="M29013 26183
L28956 26183
" />
<path d="M29013 27816
L28994 27816
" />
</g> 
</svg>
