<?xml version="1.0" standalone="no"?>
 <!DOCTYPE svg PUBLIC "-//W3C//DTD SVG 1.1//EN" 
 "http://www.w3.org/Graphics/SVG/1.1/DTD/svg11.dtd"> 
<svg xmlns="http://www.w3.org/2000/svg" version="1.1" 
    width="12.192cm" height="10.922cm" viewBox="0 0 48000 43000 ">
<title>SVG Picture created as shield2018-F.SilkS.svg date 2018/05/18 14:06:13 </title>
  <desc>Picture generated by PCBNEW </desc>
<g style="fill:#000000; fill-opacity:1;stroke:#000000; stroke-opacity:1;
stroke-linecap:round; stroke-linejoin:round; "
 transform="translate(0 0) scale(1 1)">
</g>
<g style="fill:#C2C200; fill-opacity:0.0; 
stroke:#C2C200; stroke-width:-0.000393701; stroke-opacity:1; 
stroke-linecap:round; stroke-linejoin:round;">
</g>
<g style="fill:#C2C200; fill-opacity:0.0; 
stroke:#C2C200; stroke-width:59.0551; stroke-opacity:1; 
stroke-linecap:round; stroke-linejoin:round;">
<circle cx="44000" cy="3700" r="316.228" /> 
<circle cx="4400" cy="37000" r="565.685" /> 
<circle cx="4600" cy="4800" r="800" /> 
<path d="M2800 10200
L2800 39000
" />
<path d="M2800 10200
L2800 3000
" />
<path d="M2800 39000
L44600 39000
" />
<path d="M44600 3000
L2800 3000
" />
<path d="M44600 39000
L44600 3000
" />
</g>
<g style="fill:#848484; fill-opacity:0.0; 
stroke:#848484; stroke-width:59.0551; stroke-opacity:1; 
stroke-linecap:round; stroke-linejoin:round;">
<path d="M34040 6550
L34021 6568
L33965 6587
L33928 6587
L33871 6568
L33834 6531
L33815 6493
L33796 6418
L33796 6362
L33815 6287
L33834 6250
L33871 6212
L33928 6193
L33965 6193
L34021 6212
L34040 6231
" />
<path d="M34209 6587
L34209 6193
L34434 6587
L34434 6193
" />
<path d="M34828 6587
L34603 6587
" />
<path d="M34715 6587
L34715 6193
L34678 6250
L34640 6287
L34603 6306
" />
<path d="M35071 6193
L35109 6193
L35146 6212
L35165 6231
L35184 6268
L35203 6343
L35203 6437
L35184 6512
L35165 6550
L35146 6568
L35109 6587
L35071 6587
L35034 6568
L35015 6550
L34996 6512
L34978 6437
L34978 6343
L34996 6268
L35015 6231
L35034 6212
L35071 6193
" />
<path d="M10228 6550
L10209 6568
L10153 6587
L10115 6587
L10059 6568
L10021 6531
L10003 6493
L9984 6418
L9984 6362
L10003 6287
L10021 6250
L10059 6212
L10115 6193
L10153 6193
L10209 6212
L10228 6231
" />
<path d="M10396 6587
L10396 6193
L10621 6587
L10621 6193
" />
<path d="M10771 6193
L11034 6193
L10865 6587
" />
<path d="M3662 28631
L3943 28631
L3999 28649
L4037 28687
L4056 28743
L4056 28781
" />
<path d="M4056 28237
L4056 28462
" />
<path d="M4056 28350
L3662 28350
L3718 28387
L3756 28425
L3774 28462
" />
<path d="M16422 33800
L16422 33406
L16553 33687
L16684 33406
L16684 33800
" />
<path d="M16946 33406
L17021 33406
L17059 33425
L17096 33462
L17115 33537
L17115 33668
L17096 33743
L17059 33781
L17021 33800
L16946 33800
L16909 33781
L16871 33743
L16853 33668
L16853 33537
L16871 33462
L16909 33425
L16946 33406
" />
<path d="M17228 33406
L17453 33406
" />
<path d="M17340 33800
L17340 33406
" />
<path d="M17659 33406
L17734 33406
L17771 33425
L17809 33462
L17828 33537
L17828 33668
L17809 33743
L17771 33781
L17734 33800
L17659 33800
L17621 33781
L17584 33743
L17565 33668
L17565 33537
L17584 33462
L17621 33425
L17659 33406
" />
<path d="M18221 33800
L18090 33612
" />
<path d="M17996 33800
L17996 33406
L18146 33406
L18184 33425
L18203 33443
L18221 33481
L18221 33537
L18203 33575
L18184 33593
L18146 33612
L17996 33612
" />
<path d="M18596 33800
L18371 33800
" />
<path d="M18484 33800
L18484 33406
L18446 33462
L18409 33500
L18371 33518
" />
<path d="M41300 8577
L40906 8577
L41187 8446
L40906 8315
L41300 8315
" />
<path d="M40906 8053
L40906 7978
L40925 7940
L40962 7903
L41037 7884
L41168 7884
L41243 7903
L41281 7940
L41300 7978
L41300 8053
L41281 8090
L41243 8128
L41168 8146
L41037 8146
L40962 8128
L40925 8090
L40906 8053
" />
<path d="M40906 7771
L40906 7546
" />
<path d="M41300 7659
L40906 7659
" />
<path d="M40906 7340
L40906 7265
L40925 7228
L40962 7190
L41037 7171
L41168 7171
L41243 7190
L41281 7228
L41300 7265
L41300 7340
L41281 7378
L41243 7415
L41168 7434
L41037 7434
L40962 7415
L40925 7378
L40906 7340
" />
<path d="M41300 6778
L41112 6909
" />
<path d="M41300 7003
L40906 7003
L40906 6853
L40925 6815
L40943 6796
L40981 6778
L41037 6778
L41075 6796
L41093 6815
L41112 6853
L41112 7003
" />
<path d="M40943 6628
L40925 6609
L40906 6571
L40906 6478
L40925 6440
L40943 6422
L40981 6403
L41018 6403
L41075 6422
L41300 6646
L41300 6403
" />
<path d="M41300 13077
L40906 13077
L41187 12946
L40906 12815
L41300 12815
" />
<path d="M40906 12553
L40906 12478
L40925 12440
L40962 12403
L41037 12384
L41168 12384
L41243 12403
L41281 12440
L41300 12478
L41300 12553
L41281 12590
L41243 12628
L41168 12646
L41037 12646
L40962 12628
L40925 12590
L40906 12553
" />
<path d="M40906 12271
L40906 12046
" />
<path d="M41300 12159
L40906 12159
" />
<path d="M40906 11840
L40906 11765
L40925 11728
L40962 11690
L41037 11671
L41168 11671
L41243 11690
L41281 11728
L41300 11765
L41300 11840
L41281 11878
L41243 11915
L41168 11934
L41037 11934
L40962 11915
L40925 11878
L40906 11840
" />
<path d="M41300 11278
L41112 11409
" />
<path d="M41300 11503
L40906 11503
L40906 11353
L40925 11315
L40943 11296
L40981 11278
L41037 11278
L41075 11296
L41093 11315
L41112 11353
L41112 11503
" />
<path d="M40906 11146
L40906 10903
L41056 11034
L41056 10978
L41075 10940
L41093 10922
L41131 10903
L41225 10903
L41262 10922
L41281 10940
L41300 10978
L41300 11090
L41281 11128
L41262 11146
" />
<path d="M41300 23077
L40906 23077
L41187 22946
L40906 22815
L41300 22815
" />
<path d="M40906 22553
L40906 22478
L40925 22440
L40962 22403
L41037 22384
L41168 22384
L41243 22403
L41281 22440
L41300 22478
L41300 22553
L41281 22590
L41243 22628
L41168 22646
L41037 22646
L40962 22628
L40925 22590
L40906 22553
" />
<path d="M40906 22271
L40906 22046
" />
<path d="M41300 22159
L40906 22159
" />
<path d="M40906 21840
L40906 21765
L40925 21728
L40962 21690
L41037 21671
L41168 21671
L41243 21690
L41281 21728
L41300 21765
L41300 21840
L41281 21878
L41243 21915
L41168 21934
L41037 21934
L40962 21915
L40925 21878
L40906 21840
" />
<path d="M41300 21278
L41112 21409
" />
<path d="M41300 21503
L40906 21503
L40906 21353
L40925 21315
L40943 21296
L40981 21278
L41037 21278
L41075 21296
L41093 21315
L41112 21353
L41112 21503
" />
<path d="M41037 20940
L41300 20940
" />
<path d="M40887 21034
L41168 21128
L41168 20884
" />
<path d="M43689 33563
L43689 33338
" />
<path d="M44083 33451
L43689 33451
" />
<path d="M44083 33207
L43689 33207
L43689 33057
L43708 33020
L43727 33001
L43764 32982
L43821 32982
L43858 33001
L43877 33020
L43896 33057
L43896 33207
" />
<path d="M44083 32607
L44083 32832
" />
<path d="M44083 32720
L43689 32720
L43746 32757
L43783 32795
L43802 32832
" />
<path d="M43689 36563
L43689 36338
" />
<path d="M44083 36451
L43689 36451
" />
<path d="M44083 36207
L43689 36207
L43689 36057
L43708 36020
L43727 36001
L43764 35982
L43821 35982
L43858 36001
L43877 36020
L43896 36057
L43896 36207
" />
<path d="M43727 35832
L43708 35813
L43689 35776
L43689 35682
L43708 35645
L43727 35626
L43764 35607
L43802 35607
L43858 35626
L44083 35851
L44083 35607
" />
<path d="M9436 36189
L9661 36189
" />
<path d="M9548 36583
L9548 36189
" />
<path d="M9792 36583
L9792 36189
L9942 36189
L9979 36208
L9998 36227
L10017 36264
L10017 36321
L9998 36358
L9979 36377
L9942 36396
L9792 36396
" />
<path d="M10148 36189
L10392 36189
L10261 36339
L10317 36339
L10354 36358
L10373 36377
L10392 36414
L10392 36508
L10373 36546
L10354 36564
L10317 36583
L10204 36583
L10167 36564
L10148 36546
" />
<path d="M12936 36189
L13161 36189
" />
<path d="M13048 36583
L13048 36189
" />
<path d="M13292 36583
L13292 36189
L13442 36189
L13479 36208
L13498 36227
L13517 36264
L13517 36321
L13498 36358
L13479 36377
L13442 36396
L13292 36396
" />
<path d="M13854 36321
L13854 36583
" />
<path d="M13761 36171
L13667 36452
L13911 36452
" />
<path d="M19936 36189
L20161 36189
" />
<path d="M20048 36583
L20048 36189
" />
<path d="M20292 36583
L20292 36189
L20442 36189
L20479 36208
L20498 36227
L20517 36264
L20517 36321
L20498 36358
L20479 36377
L20442 36396
L20292 36396
" />
<path d="M20873 36189
L20686 36189
L20667 36377
L20686 36358
L20723 36339
L20817 36339
L20854 36358
L20873 36377
L20892 36414
L20892 36508
L20873 36546
L20854 36564
L20817 36583
L20723 36583
L20686 36564
L20667 36546
" />
<path d="M16336 36089
L16561 36089
" />
<path d="M16448 36483
L16448 36089
" />
<path d="M16692 36483
L16692 36089
L16842 36089
L16879 36108
L16898 36127
L16917 36164
L16917 36221
L16898 36258
L16879 36277
L16842 36296
L16692 36296
" />
<path d="M17254 36089
L17179 36089
L17142 36108
L17123 36127
L17086 36183
L17067 36258
L17067 36408
L17086 36446
L17104 36464
L17142 36483
L17217 36483
L17254 36464
L17273 36446
L17292 36408
L17292 36314
L17273 36277
L17254 36258
L17217 36239
L17142 36239
L17104 36258
L17086 36277
L17067 36314
" />
<path d="M23436 36189
L23661 36189
" />
<path d="M23548 36583
L23548 36189
" />
<path d="M23792 36583
L23792 36189
L23942 36189
L23979 36208
L23998 36227
L24017 36264
L24017 36321
L23998 36358
L23979 36377
L23942 36396
L23792 36396
" />
<path d="M24148 36189
L24411 36189
L24242 36583
" />
<path d="M26936 36189
L27161 36189
" />
<path d="M27048 36583
L27048 36189
" />
<path d="M27292 36583
L27292 36189
L27442 36189
L27479 36208
L27498 36227
L27517 36264
L27517 36321
L27498 36358
L27479 36377
L27442 36396
L27292 36396
" />
<path d="M27742 36358
L27704 36339
L27686 36321
L27667 36283
L27667 36264
L27686 36227
L27704 36208
L27742 36189
L27817 36189
L27854 36208
L27873 36227
L27892 36264
L27892 36283
L27873 36321
L27854 36339
L27817 36358
L27742 36358
L27704 36377
L27686 36396
L27667 36433
L27667 36508
L27686 36546
L27704 36564
L27742 36583
L27817 36583
L27854 36564
L27873 36546
L27892 36508
L27892 36433
L27873 36396
L27854 36377
L27817 36358
" />
<path d="M30436 36189
L30661 36189
" />
<path d="M30548 36583
L30548 36189
" />
<path d="M30792 36583
L30792 36189
L30942 36189
L30979 36208
L30998 36227
L31017 36264
L31017 36321
L30998 36358
L30979 36377
L30942 36396
L30792 36396
" />
<path d="M31204 36583
L31279 36583
L31317 36564
L31336 36546
L31373 36489
L31392 36414
L31392 36264
L31373 36227
L31354 36208
L31317 36189
L31242 36189
L31204 36208
L31186 36227
L31167 36264
L31167 36358
L31186 36396
L31204 36414
L31242 36433
L31317 36433
L31354 36414
L31373 36396
L31392 36358
" />
<path d="M33748 36189
L33973 36189
" />
<path d="M33861 36583
L33861 36189
" />
<path d="M34104 36583
L34104 36189
L34254 36189
L34292 36208
L34311 36227
L34329 36264
L34329 36321
L34311 36358
L34292 36377
L34254 36396
L34104 36396
" />
<path d="M34704 36583
L34479 36583
" />
<path d="M34592 36583
L34592 36189
L34554 36246
L34517 36283
L34479 36302
" />
<path d="M34948 36189
L34986 36189
L35023 36208
L35042 36227
L35061 36264
L35079 36339
L35079 36433
L35061 36508
L35042 36546
L35023 36564
L34986 36583
L34948 36583
L34911 36564
L34892 36546
L34873 36508
L34854 36433
L34854 36339
L34873 36264
L34892 36227
L34911 36208
L34948 36189
" />
</g>
<g style="fill:#008484; fill-opacity:0.0; 
stroke:#008484; stroke-width:59.0551; stroke-opacity:1; 
stroke-linecap:round; stroke-linejoin:round;">
</g>
<g style="fill:#008484; fill-opacity:0.0; 
stroke:#008484; stroke-width:78.7402; stroke-opacity:1; 
stroke-linecap:round; stroke-linejoin:round;">
<path d="M23700 33280
L23700 33599
L23718 33636
L23737 33655
L23775 33674
L23850 33674
L23887 33655
L23906 33636
L23925 33599
L23925 33280
" />
<path d="M24093 33317
L24112 33299
L24149 33280
L24243 33280
L24281 33299
L24299 33317
L24318 33355
L24318 33392
L24299 33449
L24074 33674
L24318 33674
" />
</g>
<g style="fill:#008484; fill-opacity:0.0; 
stroke:#008484; stroke-width:73.8189; stroke-opacity:1; 
stroke-linecap:round; stroke-linejoin:round;">
<path d="M23535 32161
L23535 31964
" />
<path d="M23535 31992
L23550 31978
L23578 31964
L23620 31964
L23648 31978
L23662 32006
L23662 32161
" />
<path d="M23662 32006
L23676 31978
L23704 31964
L23746 31964
L23775 31978
L23789 32006
L23789 32161
" />
<path d="M24056 32161
L24056 32006
L24042 31978
L24014 31964
L23957 31964
L23929 31978
" />
<path d="M24056 32147
L24028 32161
L23957 32161
L23929 32147
L23915 32118
L23915 32090
L23929 32062
L23957 32048
L24028 32048
L24056 32034
" />
<path d="M24239 32161
L24210 32147
L24196 32118
L24196 31865
" />
<path d="M24464 32147
L24435 32161
L24379 32161
L24351 32147
L24337 32118
L24337 32006
L24351 31978
L24379 31964
L24435 31964
L24464 31978
L24478 32006
L24478 32034
L24337 32062
" />
</g>
<g style="fill:#848484; fill-opacity:0.0; 
stroke:#848484; stroke-width:73.8189; stroke-opacity:1; 
stroke-linecap:round; stroke-linejoin:round;">
</g>
<g style="fill:#848484; fill-opacity:0.0; 
stroke:#848484; stroke-width:59.0551; stroke-opacity:1; 
stroke-linecap:round; stroke-linejoin:round;">
<path d="M41300 30240
L40906 30240
L40906 30090
L40925 30053
L40943 30034
L40981 30015
L41037 30015
L41075 30034
L41093 30053
L41112 30090
L41112 30240
" />
<path d="M40906 29884
L41300 29790
L41018 29715
L41300 29640
L40906 29546
" />
<path d="M41300 29396
L40906 29396
L41187 29265
L40906 29134
L41300 29134
" />
<path d="M40943 28965
L40925 28946
L40906 28909
L40906 28815
L40925 28778
L40943 28759
L40981 28740
L41018 28740
L41075 28759
L41300 28984
L41300 28740
" />
<path d="M41300 26740
L40906 26740
L40906 26590
L40925 26553
L40943 26534
L40981 26515
L41037 26515
L41075 26534
L41093 26553
L41112 26590
L41112 26740
" />
<path d="M40906 26384
L41300 26290
L41018 26215
L41300 26140
L40906 26046
" />
<path d="M41300 25896
L40906 25896
L41187 25765
L40906 25634
L41300 25634
" />
<path d="M41300 25240
L41300 25465
" />
<path d="M41300 25353
L40906 25353
L40962 25390
L41000 25428
L41018 25465
" />
<path d="M29325 33781
L29381 33800
L29475 33800
L29512 33781
L29531 33762
L29550 33725
L29550 33687
L29531 33650
L29512 33631
L29475 33612
L29400 33593
L29362 33575
L29343 33556
L29325 33518
L29325 33481
L29343 33443
L29362 33425
L29400 33406
L29493 33406
L29550 33425
" />
<path d="M29718 33593
L29850 33593
" />
<path d="M29906 33800
L29718 33800
L29718 33406
L29906 33406
" />
<path d="M30299 33800
L30168 33612
" />
<path d="M30074 33800
L30074 33406
L30224 33406
L30262 33425
L30281 33443
L30299 33481
L30299 33537
L30281 33575
L30262 33593
L30224 33612
L30074 33612
" />
<path d="M30431 33406
L30674 33406
L30543 33556
L30599 33556
L30637 33575
L30656 33593
L30674 33631
L30674 33725
L30656 33762
L30637 33781
L30599 33800
L30487 33800
L30449 33781
L30431 33762
" />
<path d="M9825 33781
L9881 33800
L9975 33800
L10012 33781
L10031 33762
L10050 33725
L10050 33687
L10031 33650
L10012 33631
L9975 33612
L9900 33593
L9862 33575
L9843 33556
L9825 33518
L9825 33481
L9843 33443
L9862 33425
L9900 33406
L9993 33406
L10050 33425
" />
<path d="M10218 33593
L10350 33593
" />
<path d="M10406 33800
L10218 33800
L10218 33406
L10406 33406
" />
<path d="M10799 33800
L10668 33612
" />
<path d="M10574 33800
L10574 33406
L10724 33406
L10762 33425
L10781 33443
L10799 33481
L10799 33537
L10781 33575
L10762 33593
L10724 33612
L10574 33612
" />
<path d="M10949 33443
L10968 33425
L11006 33406
L11099 33406
L11137 33425
L11156 33443
L11174 33481
L11174 33518
L11156 33575
L10931 33800
L11174 33800
" />
<path d="M3537 11174
L3556 11118
L3556 11024
L3537 10987
L3518 10968
L3481 10949
L3443 10949
L3406 10968
L3387 10987
L3368 11024
L3349 11099
L3331 11137
L3312 11156
L3274 11174
L3237 11174
L3199 11156
L3181 11137
L3162 11099
L3162 11006
L3181 10949
" />
<path d="M3349 10781
L3349 10649
" />
<path d="M3556 10593
L3556 10781
L3162 10781
L3162 10593
" />
<path d="M3556 10200
L3368 10331
" />
<path d="M3556 10425
L3162 10425
L3162 10275
L3181 10237
L3199 10218
L3237 10200
L3293 10200
L3331 10218
L3349 10237
L3368 10275
L3368 10425
" />
<path d="M3556 9825
L3556 10050
" />
<path d="M3556 9937
L3162 9937
L3218 9975
L3256 10012
L3274 10050
" />
<path d="M41281 35049
L41300 34993
L41300 34899
L41281 34862
L41262 34843
L41225 34824
L41187 34824
L41150 34843
L41131 34862
L41112 34899
L41093 34974
L41075 35012
L41056 35031
L41018 35049
L40981 35049
L40943 35031
L40925 35012
L40906 34974
L40906 34881
L40925 34824
" />
<path d="M41093 34656
L41093 34524
" />
<path d="M41300 34468
L41300 34656
L40906 34656
L40906 34468
" />
<path d="M41300 34074
L41112 34206
" />
<path d="M41300 34299
L40906 34299
L40906 34149
L40925 34112
L40943 34093
L40981 34074
L41037 34074
L41075 34093
L41093 34112
L41112 34149
L41112 34299
" />
<path d="M40906 33962
L41300 33831
L40906 33700
" />
<path d="M40906 33493
L40906 33418
L40925 33381
L40962 33343
L41037 33325
L41168 33325
L41243 33343
L41281 33381
L41300 33418
L41300 33493
L41281 33531
L41243 33568
L41168 33587
L41037 33587
L40962 33568
L40925 33531
L40906 33493
" />
<path d="M41300 32950
L41300 33175
" />
<path d="M41300 33062
L40906 33062
L40962 33100
L41000 33137
L41018 33175
" />
<path d="M3556 18568
L3162 18568
L3162 18474
L3181 18418
L3218 18381
L3256 18362
L3331 18343
L3387 18343
L3462 18362
L3499 18381
L3537 18418
L3556 18474
L3556 18568
" />
<path d="M3349 18174
L3349 18043
" />
<path d="M3556 17987
L3556 18174
L3162 18174
L3162 17987
" />
<path d="M3349 17687
L3368 17631
L3387 17612
L3424 17593
L3481 17593
L3518 17612
L3537 17631
L3556 17668
L3556 17818
L3162 17818
L3162 17687
L3181 17649
L3199 17631
L3237 17612
L3274 17612
L3312 17631
L3331 17649
L3349 17687
L3349 17818
" />
<path d="M3162 17425
L3481 17425
L3518 17406
L3537 17387
L3556 17350
L3556 17275
L3537 17237
L3518 17218
L3481 17200
L3162 17200
" />
<path d="M3181 16806
L3162 16843
L3162 16900
L3181 16956
L3218 16993
L3256 17012
L3331 17031
L3387 17031
L3462 17012
L3499 16993
L3537 16956
L3556 16900
L3556 16862
L3537 16806
L3518 16787
L3387 16787
L3387 16862
" />
<path d="M3556 16412
L3556 16637
" />
<path d="M3556 16525
L3162 16525
L3218 16562
L3256 16600
L3274 16637
" />
<path d="M5260 33752
L4867 33752
L4867 33659
L4885 33602
L4923 33565
L4960 33546
L5035 33527
L5092 33527
L5167 33546
L5204 33565
L5242 33602
L5260 33659
L5260 33752
" />
<path d="M5260 33359
L4867 33359
" />
<path d="M4885 32965
L4867 33002
L4867 33059
L4885 33115
L4923 33152
L4960 33171
L5035 33190
L5092 33190
L5167 33171
L5204 33152
L5242 33115
L5260 33059
L5260 33021
L5242 32965
L5223 32946
L5092 32946
L5092 33021
" />
<path d="M5260 32778
L4867 32778
" />
<path d="M4867 32646
L4867 32421
" />
<path d="M5260 32534
L4867 32534
" />
<path d="M5148 32309
L5148 32121
" />
<path d="M5260 32346
L4867 32215
L5260 32084
" />
<path d="M5260 31765
L5260 31953
L4867 31953
" />
<path d="M5298 31728
L5298 31428
" />
<path d="M5260 31334
L4867 31334
" />
<path d="M5260 31146
L4867 31146
L5260 30922
L4867 30922
" />
<path d="M5298 30828
L5298 30528
" />
<path d="M5260 30228
L5260 30453
" />
<path d="M5260 30340
L4867 30340
L4923 30378
L4960 30415
L4979 30453
" />
<path d="M5190 21215
L5153 21196
L5115 21159
L5059 21103
L5021 21084
L4984 21084
" />
<path d="M5003 21178
L4965 21159
L4928 21121
L4909 21046
L4909 20915
L4928 20840
L4965 20803
L5003 20784
L5078 20784
L5115 20803
L5153 20840
L5171 20915
L5171 21046
L5153 21121
L5115 21159
L5078 21178
L5003 21178
" />
<path d="M5340 20971
L5471 20971
" />
<path d="M5528 21178
L5340 21178
L5340 20784
L5528 20784
" />
<path d="M5696 21178
L5696 20784
" />
<path d="M5865 20821
L5884 20803
L5921 20784
L6015 20784
L6053 20803
L6071 20821
L6090 20859
L6090 20896
L6071 20953
L5846 21178
L6090 21178
" />
<path d="M39190 20215
L39153 20196
L39115 20159
L39059 20103
L39021 20084
L38984 20084
" />
<path d="M39003 20178
L38965 20159
L38928 20121
L38909 20046
L38909 19915
L38928 19840
L38965 19803
L39003 19784
L39078 19784
L39115 19803
L39153 19840
L39171 19915
L39171 20046
L39153 20121
L39115 20159
L39078 20178
L39003 20178
" />
<path d="M39340 19971
L39471 19971
" />
<path d="M39528 20178
L39340 20178
L39340 19784
L39528 19784
" />
<path d="M39696 20178
L39696 19784
" />
<path d="M40090 20178
L39865 20178
" />
<path d="M39978 20178
L39978 19784
L39940 19840
L39903 19878
L39865 19896
" />
</g>
<g style="fill:#008484; fill-opacity:0.0; 
stroke:#008484; stroke-width:59.0551; stroke-opacity:1; 
stroke-linecap:round; stroke-linejoin:round;">
</g>
<g style="fill:#008484; fill-opacity:0.0; 
stroke:#008484; stroke-width:47.2441; stroke-opacity:1; 
stroke-linecap:round; stroke-linejoin:round;">
<path d="M33476 6976
L34500 6976
" />
<path d="M33476 6976
L33476 26023
" />
<path d="M33476 26023
L35523 26023
" />
<path d="M35523 8000
L35523 26023
" />
<path d="M34500 8000
L35523 8000
" />
<path d="M34500 6976
L34500 8000
" />
<path d="M35523 6976
L35523 7500
" />
<path d="M35000 6976
L35523 6976
" />
<path d="M9476 6976
L10500 6976
" />
<path d="M9476 6976
L9476 26023
" />
<path d="M9476 26023
L11523 26023
" />
<path d="M11523 8000
L11523 26023
" />
<path d="M10500 8000
L11523 8000
" />
<path d="M10500 6976
L10500 8000
" />
<path d="M11523 6976
L11523 7500
" />
<path d="M11000 6976
L11523 6976
" />
<path d="M4307 29543
L6677 29543
" />
<path d="M6677 29543
L6677 27456
" />
<path d="M6677 27456
L4307 27456
" />
<path d="M4307 27456
L4307 29543
" />
<path d="M4712 29657
L6287 29657
" />
<path d="M6677 29000
L6283 29000
" />
<path d="M6283 29000
L6283 28000
" />
<path d="M6283 28000
L6677 28000
" />
<path d="M6283 29000
L6074 28901
" />
<path d="M6074 28901
L6074 28098
" />
<path d="M6074 28098
L6283 28000
" />
<path d="M6677 28901
L6283 28901
" />
<path d="M6677 28098
L6283 28098
" />
<path d="M4307 29314
L4543 29314
" />
<path d="M4543 29314
L4543 28685
" />
<path d="M4543 28685
L4307 28685
" />
<path d="M4307 28314
L4543 28314
" />
<path d="M4543 28314
L4543 27685
" />
<path d="M4543 27685
L4307 27685
" />
<path d="M16185 32956
L16185 33192
" />
<path d="M16814 32956
L16185 32956
" />
<path d="M16814 33192
L16814 32956
" />
<path d="M17185 32956
L17185 33192
" />
<path d="M17814 32956
L17185 32956
" />
<path d="M17814 33192
L17814 32956
" />
<path d="M18185 32956
L18185 33192
" />
<path d="M18814 32956
L18185 32956
" />
<path d="M18814 33192
L18814 32956
" />
<path d="M16598 30822
L16598 31216
" />
<path d="M18401 30822
L18401 31216
" />
<path d="M16598 31425
L16500 31216
" />
<path d="M18401 31425
L16598 31425
" />
<path d="M18500 31216
L18401 31425
" />
<path d="M16500 31216
L16500 30822
" />
<path d="M18500 31216
L16500 31216
" />
<path d="M18500 30822
L18500 31216
" />
<path d="M19157 32787
L19157 31212
" />
<path d="M15956 33192
L19043 33192
" />
<path d="M15956 30822
L15956 33192
" />
<path d="M19043 30822
L15956 30822
" />
<path d="M19043 33192
L19043 30822
" />
<path d="M40456 8814
L40692 8814
" />
<path d="M40456 8185
L40456 8814
" />
<path d="M40692 8185
L40456 8185
" />
<path d="M40456 7814
L40692 7814
" />
<path d="M40456 7185
L40456 7814
" />
<path d="M40692 7185
L40456 7185
" />
<path d="M40456 6814
L40692 6814
" />
<path d="M40456 6185
L40456 6814
" />
<path d="M40692 6185
L40456 6185
" />
<path d="M38322 8401
L38716 8401
" />
<path d="M38322 6598
L38716 6598
" />
<path d="M38925 8401
L38716 8500
" />
<path d="M38925 6598
L38925 8401
" />
<path d="M38716 6500
L38925 6598
" />
<path d="M38716 8500
L38322 8500
" />
<path d="M38716 6500
L38716 8500
" />
<path d="M38322 6500
L38716 6500
" />
<path d="M40287 5842
L38712 5842
" />
<path d="M40692 9043
L40692 5956
" />
<path d="M38322 9043
L40692 9043
" />
<path d="M38322 5956
L38322 9043
" />
<path d="M40692 5956
L38322 5956
" />
<path d="M40456 13314
L40692 13314
" />
<path d="M40456 12685
L40456 13314
" />
<path d="M40692 12685
L40456 12685
" />
<path d="M40456 12314
L40692 12314
" />
<path d="M40456 11685
L40456 12314
" />
<path d="M40692 11685
L40456 11685
" />
<path d="M40456 11314
L40692 11314
" />
<path d="M40456 10685
L40456 11314
" />
<path d="M40692 10685
L40456 10685
" />
<path d="M38322 12901
L38716 12901
" />
<path d="M38322 11098
L38716 11098
" />
<path d="M38925 12901
L38716 13000
" />
<path d="M38925 11098
L38925 12901
" />
<path d="M38716 11000
L38925 11098
" />
<path d="M38716 13000
L38322 13000
" />
<path d="M38716 11000
L38716 13000
" />
<path d="M38322 11000
L38716 11000
" />
<path d="M40287 10342
L38712 10342
" />
<path d="M40692 13543
L40692 10456
" />
<path d="M38322 13543
L40692 13543
" />
<path d="M38322 10456
L38322 13543
" />
<path d="M40692 10456
L38322 10456
" />
<path d="M40456 23314
L40692 23314
" />
<path d="M40456 22685
L40456 23314
" />
<path d="M40692 22685
L40456 22685
" />
<path d="M40456 22314
L40692 22314
" />
<path d="M40456 21685
L40456 22314
" />
<path d="M40692 21685
L40456 21685
" />
<path d="M40456 21314
L40692 21314
" />
<path d="M40456 20685
L40456 21314
" />
<path d="M40692 20685
L40456 20685
" />
<path d="M38322 22901
L38716 22901
" />
<path d="M38322 21098
L38716 21098
" />
<path d="M38925 22901
L38716 23000
" />
<path d="M38925 21098
L38925 22901
" />
<path d="M38716 21000
L38925 21098
" />
<path d="M38716 23000
L38322 23000
" />
<path d="M38716 21000
L38716 23000
" />
<path d="M38322 21000
L38716 21000
" />
<path d="M40287 20342
L38712 20342
" />
<path d="M40692 23543
L40692 20456
" />
<path d="M38322 23543
L40692 23543
" />
<path d="M38322 20456
L38322 23543
" />
<path d="M40692 20456
L38322 20456
" />
<path d="M42409 34090
L43590 34090
" />
<path d="M42409 31925
L42409 34090
" />
<path d="M43590 31925
L42409 31925
" />
<path d="M43590 34090
L43590 31925
" />
<path d="M42409 37090
L43590 37090
" />
<path d="M42409 34925
L42409 37090
" />
<path d="M43590 34925
L42409 34925
" />
<path d="M43590 37090
L43590 34925
" />
<path d="M8909 34909
L8909 36090
" />
<path d="M11074 34909
L8909 34909
" />
<path d="M11074 36090
L11074 34909
" />
<path d="M8909 36090
L11074 36090
" />
<path d="M12409 34909
L12409 36090
" />
<path d="M14574 34909
L12409 34909
" />
<path d="M14574 36090
L14574 34909
" />
<path d="M12409 36090
L14574 36090
" />
<path d="M19409 34909
L19409 36090
" />
<path d="M21574 34909
L19409 34909
" />
<path d="M21574 36090
L21574 34909
" />
<path d="M19409 36090
L21574 36090
" />
<path d="M15809 34809
L15809 35990
" />
<path d="M17974 34809
L15809 34809
" />
<path d="M17974 35990
L17974 34809
" />
<path d="M15809 35990
L17974 35990
" />
<path d="M22909 34909
L22909 36090
" />
<path d="M25074 34909
L22909 34909
" />
<path d="M25074 36090
L25074 34909
" />
<path d="M22909 36090
L25074 36090
" />
<path d="M26409 34909
L26409 36090
" />
<path d="M28574 34909
L26409 34909
" />
<path d="M28574 36090
L28574 34909
" />
<path d="M26409 36090
L28574 36090
" />
<path d="M29909 34909
L29909 36090
" />
<path d="M32074 34909
L29909 34909
" />
<path d="M32074 36090
L32074 34909
" />
<path d="M29909 36090
L32074 36090
" />
<path d="M33409 34909
L33409 36090
" />
<path d="M35574 34909
L33409 34909
" />
<path d="M35574 36090
L35574 34909
" />
<path d="M33409 36090
L35574 36090
" />
</g>
<g style="fill:#008484; fill-opacity:0.0; 
stroke:#008484; stroke-width:78.7402; stroke-opacity:1; 
stroke-linecap:round; stroke-linejoin:round;">
<path d="M25417 30976
L25417 33023
" />
<path d="M22582 30976
L25417 30976
" />
<path d="M22582 33023
L22582 30976
" />
<path d="M25417 33023
L22582 33023
" />
<path d="M22366 31488
L22582 31488
" />
<path d="M22366 32511
L22366 31488
" />
<path d="M22582 32511
L22366 32511
" />
<path d="M25633 31488
L25417 31488
" />
<path d="M25633 32511
L25633 31488
" />
<path d="M25417 32511
L25633 32511
" />
<path d="M25157 31149
L25157 32850
" />
<path d="M22842 31149
L25157 31149
" />
<path d="M22842 32850
L22842 31149
" />
<path d="M25157 32850
L22842 32850
" />
</g>
<g style="fill:#008484; fill-opacity:0.0; 
stroke:#008484; stroke-width:39.3701; stroke-opacity:1; 
stroke-linecap:round; stroke-linejoin:round;">
<path d="M22842 32433
L22582 32433
" />
<path d="M22842 31566
L22582 31566
" />
<path d="M22842 32000
L22582 32000
" />
<path d="M22842 32433
L22724 32314
" />
<path d="M22724 32118
L22724 32314
" />
<path d="M22842 32000
L22724 32118
" />
<path d="M22724 32314
L22582 32314
" />
<path d="M22724 32118
L22582 32118
" />
</g>
<g style="fill:#008484; fill-opacity:0.0; 
stroke:#008484; stroke-width:47.2441; stroke-opacity:1; 
stroke-linecap:round; stroke-linejoin:round;">
<path d="M40456 30314
L40692 30314
" />
<path d="M40456 29685
L40456 30314
" />
<path d="M40692 29685
L40456 29685
" />
<path d="M40456 29314
L40692 29314
" />
<path d="M40456 28685
L40456 29314
" />
<path d="M40692 28685
L40456 28685
" />
<path d="M38322 29901
L38716 29901
" />
<path d="M38322 29098
L38716 29098
" />
<path d="M38925 29901
L38716 30000
" />
<path d="M38925 29098
L38925 29901
" />
<path d="M38716 29000
L38925 29098
" />
<path d="M38716 30000
L38322 30000
" />
<path d="M38716 29000
L38716 30000
" />
<path d="M38322 29000
L38716 29000
" />
<path d="M40287 28342
L38712 28342
" />
<path d="M40692 30543
L40692 28456
" />
<path d="M38322 30543
L40692 30543
" />
<path d="M38322 28456
L38322 30543
" />
<path d="M40692 28456
L38322 28456
" />
<path d="M40456 26814
L40692 26814
" />
<path d="M40456 26185
L40456 26814
" />
<path d="M40692 26185
L40456 26185
" />
<path d="M40456 25814
L40692 25814
" />
<path d="M40456 25185
L40456 25814
" />
<path d="M40692 25185
L40456 25185
" />
<path d="M38322 26401
L38716 26401
" />
<path d="M38322 25598
L38716 25598
" />
<path d="M38925 26401
L38716 26500
" />
<path d="M38925 25598
L38925 26401
" />
<path d="M38716 25500
L38925 25598
" />
<path d="M38716 26500
L38322 26500
" />
<path d="M38716 25500
L38716 26500
" />
<path d="M38322 25500
L38716 25500
" />
<path d="M40287 24842
L38712 24842
" />
<path d="M40692 27043
L40692 24956
" />
<path d="M38322 27043
L40692 27043
" />
<path d="M38322 24956
L38322 27043
" />
<path d="M40692 24956
L38322 24956
" />
<path d="M28685 32956
L28685 33192
" />
<path d="M29314 32956
L28685 32956
" />
<path d="M29314 33192
L29314 32956
" />
<path d="M29685 32956
L29685 33192
" />
<path d="M30314 32956
L29685 32956
" />
<path d="M30314 33192
L30314 32956
" />
<path d="M30685 32956
L30685 33192
" />
<path d="M31314 32956
L30685 32956
" />
<path d="M31314 33192
L31314 32956
" />
<path d="M29098 30822
L29098 31216
" />
<path d="M30901 30822
L30901 31216
" />
<path d="M29098 31425
L29000 31216
" />
<path d="M30901 31425
L29098 31425
" />
<path d="M31000 31216
L30901 31425
" />
<path d="M29000 31216
L29000 30822
" />
<path d="M31000 31216
L29000 31216
" />
<path d="M31000 30822
L31000 31216
" />
<path d="M31657 32787
L31657 31212
" />
<path d="M28456 33192
L31543 33192
" />
<path d="M28456 30822
L28456 33192
" />
<path d="M31543 30822
L28456 30822
" />
<path d="M31543 33192
L31543 30822
" />
<path d="M9185 32956
L9185 33192
" />
<path d="M9814 32956
L9185 32956
" />
<path d="M9814 33192
L9814 32956
" />
<path d="M10185 32956
L10185 33192
" />
<path d="M10814 32956
L10185 32956
" />
<path d="M10814 33192
L10814 32956
" />
<path d="M11185 32956
L11185 33192
" />
<path d="M11814 32956
L11185 32956
" />
<path d="M11814 33192
L11814 32956
" />
<path d="M9598 30822
L9598 31216
" />
<path d="M11401 30822
L11401 31216
" />
<path d="M9598 31425
L9500 31216
" />
<path d="M11401 31425
L9598 31425
" />
<path d="M11500 31216
L11401 31425
" />
<path d="M9500 31216
L9500 30822
" />
<path d="M11500 31216
L9500 31216
" />
<path d="M11500 30822
L11500 31216
" />
<path d="M12157 32787
L12157 31212
" />
<path d="M8956 33192
L12043 33192
" />
<path d="M8956 30822
L8956 33192
" />
<path d="M12043 30822
L8956 30822
" />
<path d="M12043 33192
L12043 30822
" />
<path d="M4043 9185
L3807 9185
" />
<path d="M4043 9814
L4043 9185
" />
<path d="M3807 9814
L4043 9814
" />
<path d="M4043 10185
L3807 10185
" />
<path d="M4043 10814
L4043 10185
" />
<path d="M3807 10814
L4043 10814
" />
<path d="M4043 11185
L3807 11185
" />
<path d="M4043 11814
L4043 11185
" />
<path d="M3807 11814
L4043 11814
" />
<path d="M6177 9598
L5783 9598
" />
<path d="M6177 11401
L5783 11401
" />
<path d="M5574 9598
L5783 9500
" />
<path d="M5574 11401
L5574 9598
" />
<path d="M5783 11500
L5574 11401
" />
<path d="M5783 9500
L6177 9500
" />
<path d="M5783 11500
L5783 9500
" />
<path d="M6177 11500
L5783 11500
" />
<path d="M4212 12157
L5787 12157
" />
<path d="M3807 8956
L3807 12043
" />
<path d="M6177 8956
L3807 8956
" />
<path d="M6177 12043
L6177 8956
" />
<path d="M3807 12043
L6177 12043
" />
<path d="M40456 35814
L40692 35814
" />
<path d="M40456 35185
L40456 35814
" />
<path d="M40692 35185
L40456 35185
" />
<path d="M40456 34814
L40692 34814
" />
<path d="M40456 34185
L40456 34814
" />
<path d="M40692 34185
L40456 34185
" />
<path d="M40456 33814
L40692 33814
" />
<path d="M40456 33185
L40456 33814
" />
<path d="M40692 33185
L40456 33185
" />
<path d="M40456 32814
L40692 32814
" />
<path d="M40456 32185
L40456 32814
" />
<path d="M40692 32185
L40456 32185
" />
<path d="M38322 35401
L38716 35401
" />
<path d="M38322 32598
L38716 32598
" />
<path d="M38925 35401
L38716 35500
" />
<path d="M38925 32598
L38925 35401
" />
<path d="M38716 32500
L38925 32598
" />
<path d="M38716 35500
L38322 35500
" />
<path d="M38716 32500
L38716 35500
" />
<path d="M38322 32500
L38716 32500
" />
<path d="M40287 31842
L38712 31842
" />
<path d="M40692 36043
L40692 31956
" />
<path d="M38322 36043
L40692 36043
" />
<path d="M38322 31956
L38322 36043
" />
<path d="M40692 31956
L38322 31956
" />
<path d="M4043 15685
L3807 15685
" />
<path d="M4043 16314
L4043 15685
" />
<path d="M3807 16314
L4043 16314
" />
<path d="M4043 16685
L3807 16685
" />
<path d="M4043 17314
L4043 16685
" />
<path d="M3807 17314
L4043 17314
" />
<path d="M4043 17685
L3807 17685
" />
<path d="M4043 18314
L4043 17685
" />
<path d="M3807 18314
L4043 18314
" />
<path d="M4043 18685
L3807 18685
" />
<path d="M4043 19314
L4043 18685
" />
<path d="M3807 19314
L4043 19314
" />
<path d="M6177 16098
L5783 16098
" />
<path d="M6177 18901
L5783 18901
" />
<path d="M5574 16098
L5783 16000
" />
<path d="M5574 18901
L5574 16098
" />
<path d="M5783 19000
L5574 18901
" />
<path d="M5783 16000
L6177 16000
" />
<path d="M5783 19000
L5783 16000
" />
<path d="M6177 19000
L5783 19000
" />
<path d="M4212 19657
L5787 19657
" />
<path d="M3807 15456
L3807 19543
" />
<path d="M6177 15456
L3807 15456
" />
<path d="M6177 19543
L6177 15456
" />
<path d="M3807 19543
L6177 19543
" />
<path d="M5476 32523
L5476 32000
" />
<path d="M6000 32523
L5476 32523
" />
<path d="M6500 32523
L6500 31476
" />
<path d="M6500 31476
L6523 31476
" />
<path d="M6500 32523
L6523 32523
" />
<path d="M6523 32523
L6523 31476
" />
</g>
<g style="fill:#008484; fill-opacity:0.0; 
stroke:#008484; stroke-width:59.0551; stroke-opacity:1; 
stroke-linecap:round; stroke-linejoin:round;">
<path d="M4500 22500
L4500 26000
" />
<path d="M6500 22500
L4500 22500
" />
<path d="M6500 26000
L6500 22500
" />
<path d="M4500 26000
L6500 26000
" />
<path d="M40500 18500
L40500 15000
" />
<path d="M38500 18500
L40500 18500
" />
<path d="M38500 15000
L38500 18500
" />
<path d="M40500 15000
L38500 15000
" />
</g> 
</svg>
