G04 #@! TF.GenerationSoftware,KiCad,Pcbnew,5.0.0-rc1-44a33f2~62~ubuntu16.04.1*
G04 #@! TF.CreationDate,2018-05-19T12:26:42+02:00*
G04 #@! TF.ProjectId,shield2018,736869656C64323031382E6B69636164,1.0*
G04 #@! TF.SameCoordinates,Original*
G04 #@! TF.FileFunction,Legend,Top*
G04 #@! TF.FilePolarity,Positive*
%FSLAX46Y46*%
G04 Gerber Fmt 4.6, Leading zero omitted, Abs format (unit mm)*
G04 Created by KiCad (PCBNEW 5.0.0-rc1-44a33f2~62~ubuntu16.04.1) date Sat May 19 12:26:42 2018*
%MOMM*%
%LPD*%
G01*
G04 APERTURE LIST*
%ADD10C,0.300000*%
%ADD11C,0.200000*%
%ADD12C,0.120000*%
%ADD13C,0.100000*%
%ADD14C,0.150000*%
%ADD15C,0.187500*%
G04 APERTURE END LIST*
D10*
X145128571Y-124680000D02*
X143628571Y-124680000D01*
X143628571Y-124322857D01*
X143700000Y-124108571D01*
X143842857Y-123965714D01*
X143985714Y-123894285D01*
X144271428Y-123822857D01*
X144485714Y-123822857D01*
X144771428Y-123894285D01*
X144914285Y-123965714D01*
X145057142Y-124108571D01*
X145128571Y-124322857D01*
X145128571Y-124680000D01*
X145128571Y-123180000D02*
X143628571Y-123180000D01*
X145128571Y-121608571D02*
X144414285Y-122108571D01*
X145128571Y-122465714D02*
X143628571Y-122465714D01*
X143628571Y-121894285D01*
X143700000Y-121751428D01*
X143771428Y-121680000D01*
X143914285Y-121608571D01*
X144128571Y-121608571D01*
X144271428Y-121680000D01*
X144342857Y-121751428D01*
X144414285Y-121894285D01*
X144414285Y-122465714D01*
X145068571Y-117567142D02*
X143568571Y-117567142D01*
X143568571Y-116995714D01*
X143640000Y-116852857D01*
X143711428Y-116781428D01*
X143854285Y-116710000D01*
X144068571Y-116710000D01*
X144211428Y-116781428D01*
X144282857Y-116852857D01*
X144354285Y-116995714D01*
X144354285Y-117567142D01*
X143568571Y-116210000D02*
X145068571Y-115852857D01*
X143997142Y-115567142D01*
X145068571Y-115281428D01*
X143568571Y-114924285D01*
X145068571Y-114352857D02*
X143568571Y-114352857D01*
X144640000Y-113852857D01*
X143568571Y-113352857D01*
X145068571Y-113352857D01*
D11*
X146685000Y-121920000D02*
X145415000Y-123190000D01*
X149860000Y-121920000D02*
X146685000Y-121920000D01*
X146685000Y-116840000D02*
X145415000Y-115570000D01*
X149860000Y-116840000D02*
X146685000Y-116840000D01*
X145415000Y-97790000D02*
X145415000Y-99060000D01*
D10*
X143925000Y-100953571D02*
X143925000Y-99453571D01*
X144282142Y-99453571D01*
X144496428Y-99525000D01*
X144639285Y-99667857D01*
X144710714Y-99810714D01*
X144782142Y-100096428D01*
X144782142Y-100310714D01*
X144710714Y-100596428D01*
X144639285Y-100739285D01*
X144496428Y-100882142D01*
X144282142Y-100953571D01*
X143925000Y-100953571D01*
X145425000Y-100953571D02*
X145425000Y-99453571D01*
X146996428Y-100953571D02*
X146496428Y-100239285D01*
X146139285Y-100953571D02*
X146139285Y-99453571D01*
X146710714Y-99453571D01*
X146853571Y-99525000D01*
X146925000Y-99596428D01*
X146996428Y-99739285D01*
X146996428Y-99953571D01*
X146925000Y-100096428D01*
X146853571Y-100167857D01*
X146710714Y-100239285D01*
X146139285Y-100239285D01*
X145138571Y-91757142D02*
X143638571Y-91757142D01*
X143638571Y-91185714D01*
X143710000Y-91042857D01*
X143781428Y-90971428D01*
X143924285Y-90900000D01*
X144138571Y-90900000D01*
X144281428Y-90971428D01*
X144352857Y-91042857D01*
X144424285Y-91185714D01*
X144424285Y-91757142D01*
X143638571Y-90400000D02*
X145138571Y-90042857D01*
X144067142Y-89757142D01*
X145138571Y-89471428D01*
X143638571Y-89114285D01*
X145138571Y-88542857D02*
X143638571Y-88542857D01*
X144710000Y-88042857D01*
X143638571Y-87542857D01*
X145138571Y-87542857D01*
D11*
X146685000Y-96520000D02*
X145415000Y-97790000D01*
X149860000Y-96520000D02*
X146685000Y-96520000D01*
X146685000Y-91440000D02*
X145415000Y-90170000D01*
X149860000Y-91440000D02*
X146685000Y-91440000D01*
D10*
X144948571Y-85225000D02*
X143448571Y-85225000D01*
X143448571Y-84867857D01*
X143520000Y-84653571D01*
X143662857Y-84510714D01*
X143805714Y-84439285D01*
X144091428Y-84367857D01*
X144305714Y-84367857D01*
X144591428Y-84439285D01*
X144734285Y-84510714D01*
X144877142Y-84653571D01*
X144948571Y-84867857D01*
X144948571Y-85225000D01*
X144948571Y-83725000D02*
X143448571Y-83725000D01*
X144948571Y-82153571D02*
X144234285Y-82653571D01*
X144948571Y-83010714D02*
X143448571Y-83010714D01*
X143448571Y-82439285D01*
X143520000Y-82296428D01*
X143591428Y-82225000D01*
X143734285Y-82153571D01*
X143948571Y-82153571D01*
X144091428Y-82225000D01*
X144162857Y-82296428D01*
X144234285Y-82439285D01*
X144234285Y-83010714D01*
X144968571Y-80837142D02*
X143468571Y-80837142D01*
X143468571Y-80265714D01*
X143540000Y-80122857D01*
X143611428Y-80051428D01*
X143754285Y-79980000D01*
X143968571Y-79980000D01*
X144111428Y-80051428D01*
X144182857Y-80122857D01*
X144254285Y-80265714D01*
X144254285Y-80837142D01*
X143468571Y-79480000D02*
X144968571Y-79122857D01*
X143897142Y-78837142D01*
X144968571Y-78551428D01*
X143468571Y-78194285D01*
X144968571Y-77622857D02*
X143468571Y-77622857D01*
X144540000Y-77122857D01*
X143468571Y-76622857D01*
X144968571Y-76622857D01*
D11*
X146685000Y-85090000D02*
X145415000Y-83820000D01*
X149860000Y-85090000D02*
X146685000Y-85090000D01*
X146685000Y-80010000D02*
X145415000Y-78740000D01*
X149860000Y-80010000D02*
X146685000Y-80010000D01*
D10*
X71011428Y-93237142D02*
X71011428Y-94094285D01*
X69511428Y-93665714D02*
X71011428Y-93665714D01*
X71011428Y-94451428D02*
X69511428Y-95451428D01*
X71011428Y-95451428D02*
X69511428Y-94451428D01*
X69561428Y-86000000D02*
X70275714Y-85500000D01*
X69561428Y-85142857D02*
X71061428Y-85142857D01*
X71061428Y-85714285D01*
X70990000Y-85857142D01*
X70918571Y-85928571D01*
X70775714Y-86000000D01*
X70561428Y-86000000D01*
X70418571Y-85928571D01*
X70347142Y-85857142D01*
X70275714Y-85714285D01*
X70275714Y-85142857D01*
X71061428Y-86500000D02*
X69561428Y-87500000D01*
X71061428Y-87500000D02*
X69561428Y-86500000D01*
D11*
X67945000Y-92710000D02*
X69215000Y-93980000D01*
X64770000Y-92710000D02*
X67945000Y-92710000D01*
X67945000Y-87630000D02*
X69215000Y-86360000D01*
X64770000Y-87630000D02*
X67945000Y-87630000D01*
D10*
X145078571Y-143177142D02*
X143578571Y-143177142D01*
X143578571Y-142605714D01*
X143650000Y-142462857D01*
X143721428Y-142391428D01*
X143864285Y-142320000D01*
X144078571Y-142320000D01*
X144221428Y-142391428D01*
X144292857Y-142462857D01*
X144364285Y-142605714D01*
X144364285Y-143177142D01*
X143578571Y-141820000D02*
X145078571Y-141462857D01*
X144007142Y-141177142D01*
X145078571Y-140891428D01*
X143578571Y-140534285D01*
X145078571Y-139962857D02*
X143578571Y-139962857D01*
X144650000Y-139462857D01*
X143578571Y-138962857D01*
X145078571Y-138962857D01*
D11*
X146685000Y-139700000D02*
X145415000Y-140970000D01*
X146685000Y-139700000D02*
X149860000Y-139700000D01*
D10*
X144978571Y-134467142D02*
X143478571Y-134467142D01*
X143478571Y-133895714D01*
X143550000Y-133752857D01*
X143621428Y-133681428D01*
X143764285Y-133610000D01*
X143978571Y-133610000D01*
X144121428Y-133681428D01*
X144192857Y-133752857D01*
X144264285Y-133895714D01*
X144264285Y-134467142D01*
X143478571Y-133110000D02*
X144978571Y-132752857D01*
X143907142Y-132467142D01*
X144978571Y-132181428D01*
X143478571Y-131824285D01*
X144978571Y-131252857D02*
X143478571Y-131252857D01*
X144550000Y-130752857D01*
X143478571Y-130252857D01*
X144978571Y-130252857D01*
D11*
X146685000Y-130810000D02*
X145415000Y-132080000D01*
X149860000Y-130810000D02*
X146685000Y-130810000D01*
D10*
X142137142Y-148028571D02*
X142994285Y-148028571D01*
X142565714Y-149528571D02*
X142565714Y-148028571D01*
X143351428Y-148028571D02*
X144351428Y-149528571D01*
X144351428Y-148028571D02*
X143351428Y-149528571D01*
X149478571Y-159780000D02*
X148764285Y-160280000D01*
X149478571Y-160637142D02*
X147978571Y-160637142D01*
X147978571Y-160065714D01*
X148050000Y-159922857D01*
X148121428Y-159851428D01*
X148264285Y-159780000D01*
X148478571Y-159780000D01*
X148621428Y-159851428D01*
X148692857Y-159922857D01*
X148764285Y-160065714D01*
X148764285Y-160637142D01*
X147978571Y-159280000D02*
X149478571Y-158280000D01*
X147978571Y-158280000D02*
X149478571Y-159280000D01*
D11*
X144780000Y-151130000D02*
X143510000Y-149860000D01*
X149860000Y-151130000D02*
X144780000Y-151130000D01*
X151130000Y-158115000D02*
X149860000Y-159385000D01*
X151130000Y-154305000D02*
X151130000Y-158115000D01*
D10*
X80597142Y-135368571D02*
X81454285Y-135368571D01*
X81025714Y-136868571D02*
X81025714Y-135368571D01*
X81811428Y-135368571D02*
X82811428Y-136868571D01*
X82811428Y-135368571D02*
X81811428Y-136868571D01*
D11*
X80010000Y-138430000D02*
X81280000Y-137160000D01*
X80010000Y-142875000D02*
X80010000Y-138430000D01*
D10*
X73330000Y-136868571D02*
X72830000Y-136154285D01*
X72472857Y-136868571D02*
X72472857Y-135368571D01*
X73044285Y-135368571D01*
X73187142Y-135440000D01*
X73258571Y-135511428D01*
X73330000Y-135654285D01*
X73330000Y-135868571D01*
X73258571Y-136011428D01*
X73187142Y-136082857D01*
X73044285Y-136154285D01*
X72472857Y-136154285D01*
X73830000Y-135368571D02*
X74830000Y-136868571D01*
X74830000Y-135368571D02*
X73830000Y-136868571D01*
D11*
X74930000Y-138430000D02*
X73660000Y-137160000D01*
X74930000Y-142875000D02*
X74930000Y-138430000D01*
X161925000Y-142875000D02*
X163830000Y-144780000D01*
X147955000Y-142875000D02*
X161925000Y-142875000D01*
X146050000Y-144780000D02*
X147955000Y-142875000D01*
X146050000Y-154940000D02*
X146050000Y-144780000D01*
X147955000Y-156845000D02*
X146050000Y-154940000D01*
X148590000Y-156845000D02*
X147955000Y-156845000D01*
X155575000Y-156845000D02*
X148590000Y-156845000D01*
X158115000Y-159385000D02*
X155575000Y-156845000D01*
X163830000Y-156845000D02*
X163830000Y-144780000D01*
X161290000Y-159385000D02*
X163830000Y-156845000D01*
X158115000Y-159385000D02*
X161290000Y-159385000D01*
X118745000Y-149860000D02*
X123190000Y-149860000D01*
X117475000Y-148590000D02*
X118745000Y-149860000D01*
X117475000Y-147955000D02*
X117475000Y-148590000D01*
X117475000Y-142875000D02*
X117475000Y-147955000D01*
X115570000Y-140970000D02*
X117475000Y-142875000D01*
X107315000Y-140970000D02*
X115570000Y-140970000D01*
X105410000Y-142875000D02*
X107315000Y-140970000D01*
X105410000Y-146050000D02*
X105410000Y-142875000D01*
X107950000Y-148590000D02*
X105410000Y-146050000D01*
X107950000Y-151130000D02*
X107950000Y-148590000D01*
X125730000Y-157480000D02*
X125730000Y-151130000D01*
X127000000Y-158750000D02*
X125730000Y-157480000D01*
X140970000Y-158750000D02*
X127000000Y-158750000D01*
X142240000Y-157480000D02*
X140970000Y-158750000D01*
X142240000Y-151130000D02*
X142240000Y-157480000D01*
X140970000Y-149860000D02*
X142240000Y-151130000D01*
X127000000Y-149860000D02*
X140970000Y-149860000D01*
X125730000Y-151130000D02*
X127000000Y-149860000D01*
X107950000Y-157480000D02*
X107950000Y-151130000D01*
X109220000Y-158750000D02*
X107950000Y-157480000D01*
X109855000Y-158750000D02*
X109220000Y-158750000D01*
X123190000Y-158750000D02*
X109855000Y-158750000D01*
X124460000Y-157480000D02*
X123190000Y-158750000D01*
X124460000Y-151130000D02*
X124460000Y-157480000D01*
X123190000Y-149860000D02*
X124460000Y-151130000D01*
X99060000Y-139700000D02*
X91440000Y-139700000D01*
X100965000Y-141605000D02*
X99060000Y-139700000D01*
X100965000Y-144145000D02*
X100965000Y-141605000D01*
X106680000Y-149860000D02*
X100965000Y-144145000D01*
X81280000Y-139700000D02*
X73660000Y-139700000D01*
X83185000Y-141605000D02*
X81280000Y-139700000D01*
X83185000Y-146050000D02*
X83185000Y-141605000D01*
X88900000Y-151765000D02*
X83185000Y-146050000D01*
X88900000Y-152400000D02*
X88900000Y-151765000D01*
X88900000Y-158750000D02*
X88900000Y-152400000D01*
X71755000Y-158750000D02*
X88900000Y-158750000D01*
X71755000Y-141605000D02*
X71755000Y-158750000D01*
X73660000Y-139700000D02*
X71755000Y-141605000D01*
X106680000Y-158750000D02*
X106680000Y-149860000D01*
X89535000Y-158750000D02*
X106680000Y-158750000D01*
X89535000Y-141605000D02*
X89535000Y-158750000D01*
X91440000Y-139700000D02*
X89535000Y-141605000D01*
D12*
X74870000Y-81220000D02*
X77470000Y-81220000D01*
X74870000Y-81220000D02*
X74870000Y-129600000D01*
X74870000Y-129600000D02*
X80070000Y-129600000D01*
X80070000Y-83820000D02*
X80070000Y-129600000D01*
X77470000Y-83820000D02*
X80070000Y-83820000D01*
X77470000Y-81220000D02*
X77470000Y-83820000D01*
X80070000Y-81220000D02*
X80070000Y-82550000D01*
X78740000Y-81220000D02*
X80070000Y-81220000D01*
X135830000Y-81220000D02*
X138430000Y-81220000D01*
X135830000Y-81220000D02*
X135830000Y-129600000D01*
X135830000Y-129600000D02*
X141030000Y-129600000D01*
X141030000Y-83820000D02*
X141030000Y-129600000D01*
X138430000Y-83820000D02*
X141030000Y-83820000D01*
X138430000Y-81220000D02*
X138430000Y-83820000D01*
X141030000Y-81220000D02*
X141030000Y-82550000D01*
X139700000Y-81220000D02*
X141030000Y-81220000D01*
X158520000Y-150090000D02*
X161520000Y-150090000D01*
X158520000Y-144590000D02*
X158520000Y-150090000D01*
X161520000Y-144590000D02*
X158520000Y-144590000D01*
X161520000Y-150090000D02*
X161520000Y-144590000D01*
X158520000Y-157710000D02*
X161520000Y-157710000D01*
X158520000Y-152210000D02*
X158520000Y-157710000D01*
X161520000Y-152210000D02*
X158520000Y-152210000D01*
X161520000Y-157710000D02*
X161520000Y-152210000D01*
X108990000Y-152170000D02*
X108990000Y-155170000D01*
X114490000Y-152170000D02*
X108990000Y-152170000D01*
X114490000Y-155170000D02*
X114490000Y-152170000D01*
X108990000Y-155170000D02*
X114490000Y-155170000D01*
X117880000Y-152170000D02*
X117880000Y-155170000D01*
X123380000Y-152170000D02*
X117880000Y-152170000D01*
X123380000Y-155170000D02*
X123380000Y-152170000D01*
X117880000Y-155170000D02*
X123380000Y-155170000D01*
X126770000Y-152170000D02*
X126770000Y-155170000D01*
X132270000Y-152170000D02*
X126770000Y-152170000D01*
X132270000Y-155170000D02*
X132270000Y-152170000D01*
X126770000Y-155170000D02*
X132270000Y-155170000D01*
X135660000Y-152170000D02*
X135660000Y-155170000D01*
X141160000Y-152170000D02*
X135660000Y-152170000D01*
X141160000Y-155170000D02*
X141160000Y-152170000D01*
X135660000Y-155170000D02*
X141160000Y-155170000D01*
D13*
X108520000Y-145080000D02*
X108160000Y-145080000D01*
X108520000Y-145580000D02*
X108160000Y-145580000D01*
X108820000Y-144780000D02*
X108520000Y-145080000D01*
X108520000Y-145080000D02*
X108520000Y-145580000D01*
X108820000Y-145880000D02*
X108520000Y-145580000D01*
X108820000Y-144780000D02*
X108160000Y-144780000D01*
X108820000Y-143680000D02*
X108160000Y-143680000D01*
X108820000Y-145880000D02*
X108160000Y-145880000D01*
D11*
X114700000Y-146940000D02*
X108820000Y-146940000D01*
X108820000Y-146940000D02*
X108820000Y-142620000D01*
X108820000Y-142620000D02*
X114700000Y-142620000D01*
X114700000Y-142620000D02*
X114700000Y-146940000D01*
X115360000Y-146080000D02*
X115910000Y-146080000D01*
X115910000Y-146080000D02*
X115910000Y-143480000D01*
X115910000Y-143480000D02*
X115360000Y-143480000D01*
X108160000Y-146080000D02*
X107610000Y-146080000D01*
X107610000Y-146080000D02*
X107610000Y-143480000D01*
X107610000Y-143480000D02*
X108160000Y-143480000D01*
X115360000Y-147380000D02*
X108160000Y-147380000D01*
X108160000Y-147380000D02*
X108160000Y-142180000D01*
X108160000Y-142180000D02*
X115360000Y-142180000D01*
X115360000Y-142180000D02*
X115360000Y-147380000D01*
D12*
X62340000Y-133820000D02*
X61740000Y-133820000D01*
X62340000Y-135420000D02*
X62340000Y-133820000D01*
X61740000Y-135420000D02*
X62340000Y-135420000D01*
X62340000Y-136360000D02*
X61740000Y-136360000D01*
X62340000Y-137960000D02*
X62340000Y-136360000D01*
X61740000Y-137960000D02*
X62340000Y-137960000D01*
X67760000Y-134870000D02*
X66760000Y-134870000D01*
X67760000Y-136910000D02*
X66760000Y-136910000D01*
X66230000Y-134870000D02*
X66760000Y-134620000D01*
X66230000Y-136910000D02*
X66230000Y-134870000D01*
X66760000Y-137160000D02*
X66230000Y-136910000D01*
X66760000Y-134620000D02*
X67760000Y-134620000D01*
X66760000Y-137160000D02*
X66760000Y-134620000D01*
X67760000Y-137160000D02*
X66760000Y-137160000D01*
X62770000Y-138830000D02*
X66770000Y-138830000D01*
X61740000Y-133240000D02*
X61740000Y-138540000D01*
X67760000Y-133240000D02*
X61740000Y-133240000D01*
X67760000Y-138540000D02*
X67760000Y-133240000D01*
X61740000Y-138540000D02*
X67760000Y-138540000D01*
X91910000Y-147210000D02*
X91910000Y-147810000D01*
X93510000Y-147210000D02*
X91910000Y-147210000D01*
X93510000Y-147810000D02*
X93510000Y-147210000D01*
X94450000Y-147210000D02*
X94450000Y-147810000D01*
X96050000Y-147210000D02*
X94450000Y-147210000D01*
X96050000Y-147810000D02*
X96050000Y-147210000D01*
X96990000Y-147210000D02*
X96990000Y-147810000D01*
X98590000Y-147210000D02*
X96990000Y-147210000D01*
X98590000Y-147810000D02*
X98590000Y-147210000D01*
X92960000Y-141790000D02*
X92960000Y-142790000D01*
X97540000Y-141790000D02*
X97540000Y-142790000D01*
X92960000Y-143320000D02*
X92710000Y-142790000D01*
X97540000Y-143320000D02*
X92960000Y-143320000D01*
X97790000Y-142790000D02*
X97540000Y-143320000D01*
X92710000Y-142790000D02*
X92710000Y-141790000D01*
X97790000Y-142790000D02*
X92710000Y-142790000D01*
X97790000Y-141790000D02*
X97790000Y-142790000D01*
X99460000Y-146780000D02*
X99460000Y-142780000D01*
X91330000Y-147810000D02*
X99170000Y-147810000D01*
X91330000Y-141790000D02*
X91330000Y-147810000D01*
X99170000Y-141790000D02*
X91330000Y-141790000D01*
X99170000Y-147810000D02*
X99170000Y-141790000D01*
X153560000Y-85890000D02*
X154160000Y-85890000D01*
X153560000Y-84290000D02*
X153560000Y-85890000D01*
X154160000Y-84290000D02*
X153560000Y-84290000D01*
X153560000Y-83350000D02*
X154160000Y-83350000D01*
X153560000Y-81750000D02*
X153560000Y-83350000D01*
X154160000Y-81750000D02*
X153560000Y-81750000D01*
X153560000Y-80810000D02*
X154160000Y-80810000D01*
X153560000Y-79210000D02*
X153560000Y-80810000D01*
X154160000Y-79210000D02*
X153560000Y-79210000D01*
X148140000Y-84840000D02*
X149140000Y-84840000D01*
X148140000Y-80260000D02*
X149140000Y-80260000D01*
X149670000Y-84840000D02*
X149140000Y-85090000D01*
X149670000Y-80260000D02*
X149670000Y-84840000D01*
X149140000Y-80010000D02*
X149670000Y-80260000D01*
X149140000Y-85090000D02*
X148140000Y-85090000D01*
X149140000Y-80010000D02*
X149140000Y-85090000D01*
X148140000Y-80010000D02*
X149140000Y-80010000D01*
X153130000Y-78340000D02*
X149130000Y-78340000D01*
X154160000Y-86470000D02*
X154160000Y-78630000D01*
X148140000Y-86470000D02*
X154160000Y-86470000D01*
X148140000Y-78630000D02*
X148140000Y-86470000D01*
X154160000Y-78630000D02*
X148140000Y-78630000D01*
X153560000Y-97320000D02*
X154160000Y-97320000D01*
X153560000Y-95720000D02*
X153560000Y-97320000D01*
X154160000Y-95720000D02*
X153560000Y-95720000D01*
X153560000Y-94780000D02*
X154160000Y-94780000D01*
X153560000Y-93180000D02*
X153560000Y-94780000D01*
X154160000Y-93180000D02*
X153560000Y-93180000D01*
X153560000Y-92240000D02*
X154160000Y-92240000D01*
X153560000Y-90640000D02*
X153560000Y-92240000D01*
X154160000Y-90640000D02*
X153560000Y-90640000D01*
X148140000Y-96270000D02*
X149140000Y-96270000D01*
X148140000Y-91690000D02*
X149140000Y-91690000D01*
X149670000Y-96270000D02*
X149140000Y-96520000D01*
X149670000Y-91690000D02*
X149670000Y-96270000D01*
X149140000Y-91440000D02*
X149670000Y-91690000D01*
X149140000Y-96520000D02*
X148140000Y-96520000D01*
X149140000Y-91440000D02*
X149140000Y-96520000D01*
X148140000Y-91440000D02*
X149140000Y-91440000D01*
X153130000Y-89770000D02*
X149130000Y-89770000D01*
X154160000Y-97900000D02*
X154160000Y-90060000D01*
X148140000Y-97900000D02*
X154160000Y-97900000D01*
X148140000Y-90060000D02*
X148140000Y-97900000D01*
X154160000Y-90060000D02*
X148140000Y-90060000D01*
X153560000Y-122720000D02*
X154160000Y-122720000D01*
X153560000Y-121120000D02*
X153560000Y-122720000D01*
X154160000Y-121120000D02*
X153560000Y-121120000D01*
X153560000Y-120180000D02*
X154160000Y-120180000D01*
X153560000Y-118580000D02*
X153560000Y-120180000D01*
X154160000Y-118580000D02*
X153560000Y-118580000D01*
X153560000Y-117640000D02*
X154160000Y-117640000D01*
X153560000Y-116040000D02*
X153560000Y-117640000D01*
X154160000Y-116040000D02*
X153560000Y-116040000D01*
X148140000Y-121670000D02*
X149140000Y-121670000D01*
X148140000Y-117090000D02*
X149140000Y-117090000D01*
X149670000Y-121670000D02*
X149140000Y-121920000D01*
X149670000Y-117090000D02*
X149670000Y-121670000D01*
X149140000Y-116840000D02*
X149670000Y-117090000D01*
X149140000Y-121920000D02*
X148140000Y-121920000D01*
X149140000Y-116840000D02*
X149140000Y-121920000D01*
X148140000Y-116840000D02*
X149140000Y-116840000D01*
X153130000Y-115170000D02*
X149130000Y-115170000D01*
X154160000Y-123300000D02*
X154160000Y-115460000D01*
X148140000Y-123300000D02*
X154160000Y-123300000D01*
X148140000Y-115460000D02*
X148140000Y-123300000D01*
X154160000Y-115460000D02*
X148140000Y-115460000D01*
X73430000Y-152170000D02*
X73430000Y-155170000D01*
X78930000Y-152170000D02*
X73430000Y-152170000D01*
X78930000Y-155170000D02*
X78930000Y-152170000D01*
X73430000Y-155170000D02*
X78930000Y-155170000D01*
X82320000Y-152170000D02*
X82320000Y-155170000D01*
X87820000Y-152170000D02*
X82320000Y-152170000D01*
X87820000Y-155170000D02*
X87820000Y-152170000D01*
X82320000Y-155170000D02*
X87820000Y-155170000D01*
X100100000Y-152170000D02*
X100100000Y-155170000D01*
X105600000Y-152170000D02*
X100100000Y-152170000D01*
X105600000Y-155170000D02*
X105600000Y-152170000D01*
X100100000Y-155170000D02*
X105600000Y-155170000D01*
X90956000Y-151916000D02*
X90956000Y-154916000D01*
X96456000Y-151916000D02*
X90956000Y-151916000D01*
X96456000Y-154916000D02*
X96456000Y-151916000D01*
X90956000Y-154916000D02*
X96456000Y-154916000D01*
X153560000Y-140500000D02*
X154160000Y-140500000D01*
X153560000Y-138900000D02*
X153560000Y-140500000D01*
X154160000Y-138900000D02*
X153560000Y-138900000D01*
X153560000Y-137960000D02*
X154160000Y-137960000D01*
X153560000Y-136360000D02*
X153560000Y-137960000D01*
X154160000Y-136360000D02*
X153560000Y-136360000D01*
X148140000Y-139450000D02*
X149140000Y-139450000D01*
X148140000Y-137410000D02*
X149140000Y-137410000D01*
X149670000Y-139450000D02*
X149140000Y-139700000D01*
X149670000Y-137410000D02*
X149670000Y-139450000D01*
X149140000Y-137160000D02*
X149670000Y-137410000D01*
X149140000Y-139700000D02*
X148140000Y-139700000D01*
X149140000Y-137160000D02*
X149140000Y-139700000D01*
X148140000Y-137160000D02*
X149140000Y-137160000D01*
X153130000Y-135490000D02*
X149130000Y-135490000D01*
X154160000Y-141080000D02*
X154160000Y-135780000D01*
X148140000Y-141080000D02*
X154160000Y-141080000D01*
X148140000Y-135780000D02*
X148140000Y-141080000D01*
X154160000Y-135780000D02*
X148140000Y-135780000D01*
X153560000Y-131610000D02*
X154160000Y-131610000D01*
X153560000Y-130010000D02*
X153560000Y-131610000D01*
X154160000Y-130010000D02*
X153560000Y-130010000D01*
X153560000Y-129070000D02*
X154160000Y-129070000D01*
X153560000Y-127470000D02*
X153560000Y-129070000D01*
X154160000Y-127470000D02*
X153560000Y-127470000D01*
X148140000Y-130560000D02*
X149140000Y-130560000D01*
X148140000Y-128520000D02*
X149140000Y-128520000D01*
X149670000Y-130560000D02*
X149140000Y-130810000D01*
X149670000Y-128520000D02*
X149670000Y-130560000D01*
X149140000Y-128270000D02*
X149670000Y-128520000D01*
X149140000Y-130810000D02*
X148140000Y-130810000D01*
X149140000Y-128270000D02*
X149140000Y-130810000D01*
X148140000Y-128270000D02*
X149140000Y-128270000D01*
X153130000Y-126600000D02*
X149130000Y-126600000D01*
X154160000Y-132190000D02*
X154160000Y-126890000D01*
X148140000Y-132190000D02*
X154160000Y-132190000D01*
X148140000Y-126890000D02*
X148140000Y-132190000D01*
X154160000Y-126890000D02*
X148140000Y-126890000D01*
X123660000Y-147210000D02*
X123660000Y-147810000D01*
X125260000Y-147210000D02*
X123660000Y-147210000D01*
X125260000Y-147810000D02*
X125260000Y-147210000D01*
X126200000Y-147210000D02*
X126200000Y-147810000D01*
X127800000Y-147210000D02*
X126200000Y-147210000D01*
X127800000Y-147810000D02*
X127800000Y-147210000D01*
X128740000Y-147210000D02*
X128740000Y-147810000D01*
X130340000Y-147210000D02*
X128740000Y-147210000D01*
X130340000Y-147810000D02*
X130340000Y-147210000D01*
X124710000Y-141790000D02*
X124710000Y-142790000D01*
X129290000Y-141790000D02*
X129290000Y-142790000D01*
X124710000Y-143320000D02*
X124460000Y-142790000D01*
X129290000Y-143320000D02*
X124710000Y-143320000D01*
X129540000Y-142790000D02*
X129290000Y-143320000D01*
X124460000Y-142790000D02*
X124460000Y-141790000D01*
X129540000Y-142790000D02*
X124460000Y-142790000D01*
X129540000Y-141790000D02*
X129540000Y-142790000D01*
X131210000Y-146780000D02*
X131210000Y-142780000D01*
X123080000Y-147810000D02*
X130920000Y-147810000D01*
X123080000Y-141790000D02*
X123080000Y-147810000D01*
X130920000Y-141790000D02*
X123080000Y-141790000D01*
X130920000Y-147810000D02*
X130920000Y-141790000D01*
X74130000Y-147210000D02*
X74130000Y-147810000D01*
X75730000Y-147210000D02*
X74130000Y-147210000D01*
X75730000Y-147810000D02*
X75730000Y-147210000D01*
X76670000Y-147210000D02*
X76670000Y-147810000D01*
X78270000Y-147210000D02*
X76670000Y-147210000D01*
X78270000Y-147810000D02*
X78270000Y-147210000D01*
X79210000Y-147210000D02*
X79210000Y-147810000D01*
X80810000Y-147210000D02*
X79210000Y-147210000D01*
X80810000Y-147810000D02*
X80810000Y-147210000D01*
X75180000Y-141790000D02*
X75180000Y-142790000D01*
X79760000Y-141790000D02*
X79760000Y-142790000D01*
X75180000Y-143320000D02*
X74930000Y-142790000D01*
X79760000Y-143320000D02*
X75180000Y-143320000D01*
X80010000Y-142790000D02*
X79760000Y-143320000D01*
X74930000Y-142790000D02*
X74930000Y-141790000D01*
X80010000Y-142790000D02*
X74930000Y-142790000D01*
X80010000Y-141790000D02*
X80010000Y-142790000D01*
X81680000Y-146780000D02*
X81680000Y-142780000D01*
X73550000Y-147810000D02*
X81390000Y-147810000D01*
X73550000Y-141790000D02*
X73550000Y-147810000D01*
X81390000Y-141790000D02*
X73550000Y-141790000D01*
X81390000Y-147810000D02*
X81390000Y-141790000D01*
X61070000Y-86830000D02*
X60470000Y-86830000D01*
X61070000Y-88430000D02*
X61070000Y-86830000D01*
X60470000Y-88430000D02*
X61070000Y-88430000D01*
X61070000Y-89370000D02*
X60470000Y-89370000D01*
X61070000Y-90970000D02*
X61070000Y-89370000D01*
X60470000Y-90970000D02*
X61070000Y-90970000D01*
X61070000Y-91910000D02*
X60470000Y-91910000D01*
X61070000Y-93510000D02*
X61070000Y-91910000D01*
X60470000Y-93510000D02*
X61070000Y-93510000D01*
X66490000Y-87880000D02*
X65490000Y-87880000D01*
X66490000Y-92460000D02*
X65490000Y-92460000D01*
X64960000Y-87880000D02*
X65490000Y-87630000D01*
X64960000Y-92460000D02*
X64960000Y-87880000D01*
X65490000Y-92710000D02*
X64960000Y-92460000D01*
X65490000Y-87630000D02*
X66490000Y-87630000D01*
X65490000Y-92710000D02*
X65490000Y-87630000D01*
X66490000Y-92710000D02*
X65490000Y-92710000D01*
X61500000Y-94380000D02*
X65500000Y-94380000D01*
X60470000Y-86250000D02*
X60470000Y-94090000D01*
X66490000Y-86250000D02*
X60470000Y-86250000D01*
X66490000Y-94090000D02*
X66490000Y-86250000D01*
X60470000Y-94090000D02*
X66490000Y-94090000D01*
X153560000Y-154470000D02*
X154160000Y-154470000D01*
X153560000Y-152870000D02*
X153560000Y-154470000D01*
X154160000Y-152870000D02*
X153560000Y-152870000D01*
X153560000Y-151930000D02*
X154160000Y-151930000D01*
X153560000Y-150330000D02*
X153560000Y-151930000D01*
X154160000Y-150330000D02*
X153560000Y-150330000D01*
X153560000Y-149390000D02*
X154160000Y-149390000D01*
X153560000Y-147790000D02*
X153560000Y-149390000D01*
X154160000Y-147790000D02*
X153560000Y-147790000D01*
X153560000Y-146850000D02*
X154160000Y-146850000D01*
X153560000Y-145250000D02*
X153560000Y-146850000D01*
X154160000Y-145250000D02*
X153560000Y-145250000D01*
X148140000Y-153420000D02*
X149140000Y-153420000D01*
X148140000Y-146300000D02*
X149140000Y-146300000D01*
X149670000Y-153420000D02*
X149140000Y-153670000D01*
X149670000Y-146300000D02*
X149670000Y-153420000D01*
X149140000Y-146050000D02*
X149670000Y-146300000D01*
X149140000Y-153670000D02*
X148140000Y-153670000D01*
X149140000Y-146050000D02*
X149140000Y-153670000D01*
X148140000Y-146050000D02*
X149140000Y-146050000D01*
X153130000Y-144380000D02*
X149130000Y-144380000D01*
X154160000Y-155050000D02*
X154160000Y-144670000D01*
X148140000Y-155050000D02*
X154160000Y-155050000D01*
X148140000Y-144670000D02*
X148140000Y-155050000D01*
X154160000Y-144670000D02*
X148140000Y-144670000D01*
X61070000Y-103340000D02*
X60470000Y-103340000D01*
X61070000Y-104940000D02*
X61070000Y-103340000D01*
X60470000Y-104940000D02*
X61070000Y-104940000D01*
X61070000Y-105880000D02*
X60470000Y-105880000D01*
X61070000Y-107480000D02*
X61070000Y-105880000D01*
X60470000Y-107480000D02*
X61070000Y-107480000D01*
X61070000Y-108420000D02*
X60470000Y-108420000D01*
X61070000Y-110020000D02*
X61070000Y-108420000D01*
X60470000Y-110020000D02*
X61070000Y-110020000D01*
X61070000Y-110960000D02*
X60470000Y-110960000D01*
X61070000Y-112560000D02*
X61070000Y-110960000D01*
X60470000Y-112560000D02*
X61070000Y-112560000D01*
X66490000Y-104390000D02*
X65490000Y-104390000D01*
X66490000Y-111510000D02*
X65490000Y-111510000D01*
X64960000Y-104390000D02*
X65490000Y-104140000D01*
X64960000Y-111510000D02*
X64960000Y-104390000D01*
X65490000Y-111760000D02*
X64960000Y-111510000D01*
X65490000Y-104140000D02*
X66490000Y-104140000D01*
X65490000Y-111760000D02*
X65490000Y-104140000D01*
X66490000Y-111760000D02*
X65490000Y-111760000D01*
X61500000Y-113430000D02*
X65500000Y-113430000D01*
X60470000Y-102760000D02*
X60470000Y-113140000D01*
X66490000Y-102760000D02*
X60470000Y-102760000D01*
X66490000Y-113140000D02*
X66490000Y-102760000D01*
X60470000Y-113140000D02*
X66490000Y-113140000D01*
X64710000Y-146110000D02*
X64710000Y-144780000D01*
X66040000Y-146110000D02*
X64710000Y-146110000D01*
X67310000Y-146110000D02*
X67310000Y-143450000D01*
X67310000Y-143450000D02*
X67370000Y-143450000D01*
X67310000Y-146110000D02*
X67370000Y-146110000D01*
X67370000Y-146110000D02*
X67370000Y-143450000D01*
D14*
X62230000Y-120650000D02*
X62230000Y-129540000D01*
X67310000Y-120650000D02*
X62230000Y-120650000D01*
X67310000Y-129540000D02*
X67310000Y-120650000D01*
X62230000Y-129540000D02*
X67310000Y-129540000D01*
X153670000Y-110490000D02*
X153670000Y-101600000D01*
X148590000Y-110490000D02*
X153670000Y-110490000D01*
X148590000Y-101600000D02*
X148590000Y-110490000D01*
X153670000Y-101600000D02*
X148590000Y-101600000D01*
X76779523Y-80137142D02*
X76731904Y-80184761D01*
X76589047Y-80232380D01*
X76493809Y-80232380D01*
X76350952Y-80184761D01*
X76255714Y-80089523D01*
X76208095Y-79994285D01*
X76160476Y-79803809D01*
X76160476Y-79660952D01*
X76208095Y-79470476D01*
X76255714Y-79375238D01*
X76350952Y-79280000D01*
X76493809Y-79232380D01*
X76589047Y-79232380D01*
X76731904Y-79280000D01*
X76779523Y-79327619D01*
X77208095Y-80232380D02*
X77208095Y-79232380D01*
X77779523Y-80232380D01*
X77779523Y-79232380D01*
X78160476Y-79232380D02*
X78827142Y-79232380D01*
X78398571Y-80232380D01*
X137263333Y-80137142D02*
X137215714Y-80184761D01*
X137072857Y-80232380D01*
X136977619Y-80232380D01*
X136834761Y-80184761D01*
X136739523Y-80089523D01*
X136691904Y-79994285D01*
X136644285Y-79803809D01*
X136644285Y-79660952D01*
X136691904Y-79470476D01*
X136739523Y-79375238D01*
X136834761Y-79280000D01*
X136977619Y-79232380D01*
X137072857Y-79232380D01*
X137215714Y-79280000D01*
X137263333Y-79327619D01*
X137691904Y-80232380D02*
X137691904Y-79232380D01*
X138263333Y-80232380D01*
X138263333Y-79232380D01*
X139263333Y-80232380D02*
X138691904Y-80232380D01*
X138977619Y-80232380D02*
X138977619Y-79232380D01*
X138882380Y-79375238D01*
X138787142Y-79470476D01*
X138691904Y-79518095D01*
X139882380Y-79232380D02*
X139977619Y-79232380D01*
X140072857Y-79280000D01*
X140120476Y-79327619D01*
X140168095Y-79422857D01*
X140215714Y-79613333D01*
X140215714Y-79851428D01*
X140168095Y-80041904D01*
X140120476Y-80137142D01*
X140072857Y-80184761D01*
X139977619Y-80232380D01*
X139882380Y-80232380D01*
X139787142Y-80184761D01*
X139739523Y-80137142D01*
X139691904Y-80041904D01*
X139644285Y-79851428D01*
X139644285Y-79613333D01*
X139691904Y-79422857D01*
X139739523Y-79327619D01*
X139787142Y-79280000D01*
X139882380Y-79232380D01*
X162772380Y-148656666D02*
X161772380Y-148656666D01*
X161772380Y-148275714D01*
X161820000Y-148180476D01*
X161867619Y-148132857D01*
X161962857Y-148085238D01*
X162105714Y-148085238D01*
X162200952Y-148132857D01*
X162248571Y-148180476D01*
X162296190Y-148275714D01*
X162296190Y-148656666D01*
X162486666Y-147704285D02*
X162486666Y-147228095D01*
X162772380Y-147799523D02*
X161772380Y-147466190D01*
X162772380Y-147132857D01*
X161867619Y-146847142D02*
X161820000Y-146799523D01*
X161772380Y-146704285D01*
X161772380Y-146466190D01*
X161820000Y-146370952D01*
X161867619Y-146323333D01*
X161962857Y-146275714D01*
X162058095Y-146275714D01*
X162200952Y-146323333D01*
X162772380Y-146894761D01*
X162772380Y-146275714D01*
X162772380Y-156276666D02*
X161772380Y-156276666D01*
X161772380Y-155895714D01*
X161820000Y-155800476D01*
X161867619Y-155752857D01*
X161962857Y-155705238D01*
X162105714Y-155705238D01*
X162200952Y-155752857D01*
X162248571Y-155800476D01*
X162296190Y-155895714D01*
X162296190Y-156276666D01*
X162486666Y-155324285D02*
X162486666Y-154848095D01*
X162772380Y-155419523D02*
X161772380Y-155086190D01*
X162772380Y-154752857D01*
X161772380Y-154514761D02*
X161772380Y-153895714D01*
X162153333Y-154229047D01*
X162153333Y-154086190D01*
X162200952Y-153990952D01*
X162248571Y-153943333D01*
X162343809Y-153895714D01*
X162581904Y-153895714D01*
X162677142Y-153943333D01*
X162724761Y-153990952D01*
X162772380Y-154086190D01*
X162772380Y-154371904D01*
X162724761Y-154467142D01*
X162677142Y-154514761D01*
X109947142Y-156422380D02*
X109947142Y-155422380D01*
X110328095Y-155422380D01*
X110423333Y-155470000D01*
X110470952Y-155517619D01*
X110518571Y-155612857D01*
X110518571Y-155755714D01*
X110470952Y-155850952D01*
X110423333Y-155898571D01*
X110328095Y-155946190D01*
X109947142Y-155946190D01*
X110899523Y-156136666D02*
X111375714Y-156136666D01*
X110804285Y-156422380D02*
X111137619Y-155422380D01*
X111470952Y-156422380D01*
X112328095Y-156422380D02*
X111756666Y-156422380D01*
X112042380Y-156422380D02*
X112042380Y-155422380D01*
X111947142Y-155565238D01*
X111851904Y-155660476D01*
X111756666Y-155708095D01*
X112709047Y-155517619D02*
X112756666Y-155470000D01*
X112851904Y-155422380D01*
X113090000Y-155422380D01*
X113185238Y-155470000D01*
X113232857Y-155517619D01*
X113280476Y-155612857D01*
X113280476Y-155708095D01*
X113232857Y-155850952D01*
X112661428Y-156422380D01*
X113280476Y-156422380D01*
X118837142Y-156422380D02*
X118837142Y-155422380D01*
X119218095Y-155422380D01*
X119313333Y-155470000D01*
X119360952Y-155517619D01*
X119408571Y-155612857D01*
X119408571Y-155755714D01*
X119360952Y-155850952D01*
X119313333Y-155898571D01*
X119218095Y-155946190D01*
X118837142Y-155946190D01*
X119789523Y-156136666D02*
X120265714Y-156136666D01*
X119694285Y-156422380D02*
X120027619Y-155422380D01*
X120360952Y-156422380D01*
X121218095Y-156422380D02*
X120646666Y-156422380D01*
X120932380Y-156422380D02*
X120932380Y-155422380D01*
X120837142Y-155565238D01*
X120741904Y-155660476D01*
X120646666Y-155708095D01*
X122170476Y-156422380D02*
X121599047Y-156422380D01*
X121884761Y-156422380D02*
X121884761Y-155422380D01*
X121789523Y-155565238D01*
X121694285Y-155660476D01*
X121599047Y-155708095D01*
X128274761Y-155422380D02*
X128608095Y-156422380D01*
X128941428Y-155422380D01*
X129274761Y-156422380D02*
X129274761Y-155422380D01*
X129750952Y-156422380D02*
X129750952Y-155422380D01*
X130322380Y-156422380D01*
X130322380Y-155422380D01*
X137498095Y-155470000D02*
X137402857Y-155422380D01*
X137260000Y-155422380D01*
X137117142Y-155470000D01*
X137021904Y-155565238D01*
X136974285Y-155660476D01*
X136926666Y-155850952D01*
X136926666Y-155993809D01*
X136974285Y-156184285D01*
X137021904Y-156279523D01*
X137117142Y-156374761D01*
X137260000Y-156422380D01*
X137355238Y-156422380D01*
X137498095Y-156374761D01*
X137545714Y-156327142D01*
X137545714Y-155993809D01*
X137355238Y-155993809D01*
X137974285Y-156422380D02*
X137974285Y-155422380D01*
X138545714Y-156422380D01*
X138545714Y-155422380D01*
X139021904Y-156422380D02*
X139021904Y-155422380D01*
X139260000Y-155422380D01*
X139402857Y-155470000D01*
X139498095Y-155565238D01*
X139545714Y-155660476D01*
X139593333Y-155850952D01*
X139593333Y-155993809D01*
X139545714Y-156184285D01*
X139498095Y-156279523D01*
X139402857Y-156374761D01*
X139260000Y-156422380D01*
X139021904Y-156422380D01*
D11*
X110998095Y-148032380D02*
X110998095Y-148841904D01*
X111045714Y-148937142D01*
X111093333Y-148984761D01*
X111188571Y-149032380D01*
X111379047Y-149032380D01*
X111474285Y-148984761D01*
X111521904Y-148937142D01*
X111569523Y-148841904D01*
X111569523Y-148032380D01*
X111998095Y-148127619D02*
X112045714Y-148080000D01*
X112140952Y-148032380D01*
X112379047Y-148032380D01*
X112474285Y-148080000D01*
X112521904Y-148127619D01*
X112569523Y-148222857D01*
X112569523Y-148318095D01*
X112521904Y-148460952D01*
X111950476Y-149032380D01*
X112569523Y-149032380D01*
D15*
X110581428Y-145189285D02*
X110581428Y-144689285D01*
X110581428Y-144760714D02*
X110617142Y-144725000D01*
X110688571Y-144689285D01*
X110795714Y-144689285D01*
X110867142Y-144725000D01*
X110902857Y-144796428D01*
X110902857Y-145189285D01*
X110902857Y-144796428D02*
X110938571Y-144725000D01*
X111010000Y-144689285D01*
X111117142Y-144689285D01*
X111188571Y-144725000D01*
X111224285Y-144796428D01*
X111224285Y-145189285D01*
X111902857Y-145189285D02*
X111902857Y-144796428D01*
X111867142Y-144725000D01*
X111795714Y-144689285D01*
X111652857Y-144689285D01*
X111581428Y-144725000D01*
X111902857Y-145153571D02*
X111831428Y-145189285D01*
X111652857Y-145189285D01*
X111581428Y-145153571D01*
X111545714Y-145082142D01*
X111545714Y-145010714D01*
X111581428Y-144939285D01*
X111652857Y-144903571D01*
X111831428Y-144903571D01*
X111902857Y-144867857D01*
X112367142Y-145189285D02*
X112295714Y-145153571D01*
X112260000Y-145082142D01*
X112260000Y-144439285D01*
X112938571Y-145153571D02*
X112867142Y-145189285D01*
X112724285Y-145189285D01*
X112652857Y-145153571D01*
X112617142Y-145082142D01*
X112617142Y-144796428D01*
X112652857Y-144725000D01*
X112724285Y-144689285D01*
X112867142Y-144689285D01*
X112938571Y-144725000D01*
X112974285Y-144796428D01*
X112974285Y-144867857D01*
X112617142Y-144939285D01*
D14*
X61102380Y-137175714D02*
X61102380Y-137651904D01*
X60102380Y-137651904D01*
X61102380Y-136413809D02*
X60578571Y-136413809D01*
X60483333Y-136461428D01*
X60435714Y-136556666D01*
X60435714Y-136747142D01*
X60483333Y-136842380D01*
X61054761Y-136413809D02*
X61102380Y-136509047D01*
X61102380Y-136747142D01*
X61054761Y-136842380D01*
X60959523Y-136890000D01*
X60864285Y-136890000D01*
X60769047Y-136842380D01*
X60721428Y-136747142D01*
X60721428Y-136509047D01*
X60673809Y-136413809D01*
X61054761Y-135985238D02*
X61102380Y-135890000D01*
X61102380Y-135699523D01*
X61054761Y-135604285D01*
X60959523Y-135556666D01*
X60911904Y-135556666D01*
X60816666Y-135604285D01*
X60769047Y-135699523D01*
X60769047Y-135842380D01*
X60721428Y-135937619D01*
X60626190Y-135985238D01*
X60578571Y-135985238D01*
X60483333Y-135937619D01*
X60435714Y-135842380D01*
X60435714Y-135699523D01*
X60483333Y-135604285D01*
X61054761Y-134747142D02*
X61102380Y-134842380D01*
X61102380Y-135032857D01*
X61054761Y-135128095D01*
X60959523Y-135175714D01*
X60578571Y-135175714D01*
X60483333Y-135128095D01*
X60435714Y-135032857D01*
X60435714Y-134842380D01*
X60483333Y-134747142D01*
X60578571Y-134699523D01*
X60673809Y-134699523D01*
X60769047Y-135175714D01*
X61102380Y-134270952D02*
X60435714Y-134270952D01*
X60626190Y-134270952D02*
X60530952Y-134223333D01*
X60483333Y-134175714D01*
X60435714Y-134080476D01*
X60435714Y-133985238D01*
X92511904Y-149352380D02*
X92511904Y-148352380D01*
X92845238Y-149066666D01*
X93178571Y-148352380D01*
X93178571Y-149352380D01*
X93845238Y-148352380D02*
X94035714Y-148352380D01*
X94130952Y-148400000D01*
X94226190Y-148495238D01*
X94273809Y-148685714D01*
X94273809Y-149019047D01*
X94226190Y-149209523D01*
X94130952Y-149304761D01*
X94035714Y-149352380D01*
X93845238Y-149352380D01*
X93750000Y-149304761D01*
X93654761Y-149209523D01*
X93607142Y-149019047D01*
X93607142Y-148685714D01*
X93654761Y-148495238D01*
X93750000Y-148400000D01*
X93845238Y-148352380D01*
X94559523Y-148352380D02*
X95130952Y-148352380D01*
X94845238Y-149352380D02*
X94845238Y-148352380D01*
X95654761Y-148352380D02*
X95845238Y-148352380D01*
X95940476Y-148400000D01*
X96035714Y-148495238D01*
X96083333Y-148685714D01*
X96083333Y-149019047D01*
X96035714Y-149209523D01*
X95940476Y-149304761D01*
X95845238Y-149352380D01*
X95654761Y-149352380D01*
X95559523Y-149304761D01*
X95464285Y-149209523D01*
X95416666Y-149019047D01*
X95416666Y-148685714D01*
X95464285Y-148495238D01*
X95559523Y-148400000D01*
X95654761Y-148352380D01*
X97083333Y-149352380D02*
X96750000Y-148876190D01*
X96511904Y-149352380D02*
X96511904Y-148352380D01*
X96892857Y-148352380D01*
X96988095Y-148400000D01*
X97035714Y-148447619D01*
X97083333Y-148542857D01*
X97083333Y-148685714D01*
X97035714Y-148780952D01*
X96988095Y-148828571D01*
X96892857Y-148876190D01*
X96511904Y-148876190D01*
X98035714Y-149352380D02*
X97464285Y-149352380D01*
X97750000Y-149352380D02*
X97750000Y-148352380D01*
X97654761Y-148495238D01*
X97559523Y-148590476D01*
X97464285Y-148638095D01*
X155702380Y-85288095D02*
X154702380Y-85288095D01*
X155416666Y-84954761D01*
X154702380Y-84621428D01*
X155702380Y-84621428D01*
X154702380Y-83954761D02*
X154702380Y-83764285D01*
X154750000Y-83669047D01*
X154845238Y-83573809D01*
X155035714Y-83526190D01*
X155369047Y-83526190D01*
X155559523Y-83573809D01*
X155654761Y-83669047D01*
X155702380Y-83764285D01*
X155702380Y-83954761D01*
X155654761Y-84050000D01*
X155559523Y-84145238D01*
X155369047Y-84192857D01*
X155035714Y-84192857D01*
X154845238Y-84145238D01*
X154750000Y-84050000D01*
X154702380Y-83954761D01*
X154702380Y-83240476D02*
X154702380Y-82669047D01*
X155702380Y-82954761D02*
X154702380Y-82954761D01*
X154702380Y-82145238D02*
X154702380Y-81954761D01*
X154750000Y-81859523D01*
X154845238Y-81764285D01*
X155035714Y-81716666D01*
X155369047Y-81716666D01*
X155559523Y-81764285D01*
X155654761Y-81859523D01*
X155702380Y-81954761D01*
X155702380Y-82145238D01*
X155654761Y-82240476D01*
X155559523Y-82335714D01*
X155369047Y-82383333D01*
X155035714Y-82383333D01*
X154845238Y-82335714D01*
X154750000Y-82240476D01*
X154702380Y-82145238D01*
X155702380Y-80716666D02*
X155226190Y-81050000D01*
X155702380Y-81288095D02*
X154702380Y-81288095D01*
X154702380Y-80907142D01*
X154750000Y-80811904D01*
X154797619Y-80764285D01*
X154892857Y-80716666D01*
X155035714Y-80716666D01*
X155130952Y-80764285D01*
X155178571Y-80811904D01*
X155226190Y-80907142D01*
X155226190Y-81288095D01*
X154797619Y-80335714D02*
X154750000Y-80288095D01*
X154702380Y-80192857D01*
X154702380Y-79954761D01*
X154750000Y-79859523D01*
X154797619Y-79811904D01*
X154892857Y-79764285D01*
X154988095Y-79764285D01*
X155130952Y-79811904D01*
X155702380Y-80383333D01*
X155702380Y-79764285D01*
X155702380Y-96718095D02*
X154702380Y-96718095D01*
X155416666Y-96384761D01*
X154702380Y-96051428D01*
X155702380Y-96051428D01*
X154702380Y-95384761D02*
X154702380Y-95194285D01*
X154750000Y-95099047D01*
X154845238Y-95003809D01*
X155035714Y-94956190D01*
X155369047Y-94956190D01*
X155559523Y-95003809D01*
X155654761Y-95099047D01*
X155702380Y-95194285D01*
X155702380Y-95384761D01*
X155654761Y-95480000D01*
X155559523Y-95575238D01*
X155369047Y-95622857D01*
X155035714Y-95622857D01*
X154845238Y-95575238D01*
X154750000Y-95480000D01*
X154702380Y-95384761D01*
X154702380Y-94670476D02*
X154702380Y-94099047D01*
X155702380Y-94384761D02*
X154702380Y-94384761D01*
X154702380Y-93575238D02*
X154702380Y-93384761D01*
X154750000Y-93289523D01*
X154845238Y-93194285D01*
X155035714Y-93146666D01*
X155369047Y-93146666D01*
X155559523Y-93194285D01*
X155654761Y-93289523D01*
X155702380Y-93384761D01*
X155702380Y-93575238D01*
X155654761Y-93670476D01*
X155559523Y-93765714D01*
X155369047Y-93813333D01*
X155035714Y-93813333D01*
X154845238Y-93765714D01*
X154750000Y-93670476D01*
X154702380Y-93575238D01*
X155702380Y-92146666D02*
X155226190Y-92480000D01*
X155702380Y-92718095D02*
X154702380Y-92718095D01*
X154702380Y-92337142D01*
X154750000Y-92241904D01*
X154797619Y-92194285D01*
X154892857Y-92146666D01*
X155035714Y-92146666D01*
X155130952Y-92194285D01*
X155178571Y-92241904D01*
X155226190Y-92337142D01*
X155226190Y-92718095D01*
X154702380Y-91813333D02*
X154702380Y-91194285D01*
X155083333Y-91527619D01*
X155083333Y-91384761D01*
X155130952Y-91289523D01*
X155178571Y-91241904D01*
X155273809Y-91194285D01*
X155511904Y-91194285D01*
X155607142Y-91241904D01*
X155654761Y-91289523D01*
X155702380Y-91384761D01*
X155702380Y-91670476D01*
X155654761Y-91765714D01*
X155607142Y-91813333D01*
X155702380Y-122118095D02*
X154702380Y-122118095D01*
X155416666Y-121784761D01*
X154702380Y-121451428D01*
X155702380Y-121451428D01*
X154702380Y-120784761D02*
X154702380Y-120594285D01*
X154750000Y-120499047D01*
X154845238Y-120403809D01*
X155035714Y-120356190D01*
X155369047Y-120356190D01*
X155559523Y-120403809D01*
X155654761Y-120499047D01*
X155702380Y-120594285D01*
X155702380Y-120784761D01*
X155654761Y-120880000D01*
X155559523Y-120975238D01*
X155369047Y-121022857D01*
X155035714Y-121022857D01*
X154845238Y-120975238D01*
X154750000Y-120880000D01*
X154702380Y-120784761D01*
X154702380Y-120070476D02*
X154702380Y-119499047D01*
X155702380Y-119784761D02*
X154702380Y-119784761D01*
X154702380Y-118975238D02*
X154702380Y-118784761D01*
X154750000Y-118689523D01*
X154845238Y-118594285D01*
X155035714Y-118546666D01*
X155369047Y-118546666D01*
X155559523Y-118594285D01*
X155654761Y-118689523D01*
X155702380Y-118784761D01*
X155702380Y-118975238D01*
X155654761Y-119070476D01*
X155559523Y-119165714D01*
X155369047Y-119213333D01*
X155035714Y-119213333D01*
X154845238Y-119165714D01*
X154750000Y-119070476D01*
X154702380Y-118975238D01*
X155702380Y-117546666D02*
X155226190Y-117880000D01*
X155702380Y-118118095D02*
X154702380Y-118118095D01*
X154702380Y-117737142D01*
X154750000Y-117641904D01*
X154797619Y-117594285D01*
X154892857Y-117546666D01*
X155035714Y-117546666D01*
X155130952Y-117594285D01*
X155178571Y-117641904D01*
X155226190Y-117737142D01*
X155226190Y-118118095D01*
X155035714Y-116689523D02*
X155702380Y-116689523D01*
X154654761Y-116927619D02*
X155369047Y-117165714D01*
X155369047Y-116546666D01*
X74863333Y-156422380D02*
X74863333Y-155422380D01*
X75244285Y-155422380D01*
X75339523Y-155470000D01*
X75387142Y-155517619D01*
X75434761Y-155612857D01*
X75434761Y-155755714D01*
X75387142Y-155850952D01*
X75339523Y-155898571D01*
X75244285Y-155946190D01*
X74863333Y-155946190D01*
X75815714Y-156136666D02*
X76291904Y-156136666D01*
X75720476Y-156422380D02*
X76053809Y-155422380D01*
X76387142Y-156422380D01*
X77244285Y-156422380D02*
X76672857Y-156422380D01*
X76958571Y-156422380D02*
X76958571Y-155422380D01*
X76863333Y-155565238D01*
X76768095Y-155660476D01*
X76672857Y-155708095D01*
X83753333Y-156422380D02*
X83753333Y-155422380D01*
X84134285Y-155422380D01*
X84229523Y-155470000D01*
X84277142Y-155517619D01*
X84324761Y-155612857D01*
X84324761Y-155755714D01*
X84277142Y-155850952D01*
X84229523Y-155898571D01*
X84134285Y-155946190D01*
X83753333Y-155946190D01*
X84705714Y-156136666D02*
X85181904Y-156136666D01*
X84610476Y-156422380D02*
X84943809Y-155422380D01*
X85277142Y-156422380D01*
X85800952Y-155422380D02*
X85896190Y-155422380D01*
X85991428Y-155470000D01*
X86039047Y-155517619D01*
X86086666Y-155612857D01*
X86134285Y-155803333D01*
X86134285Y-156041428D01*
X86086666Y-156231904D01*
X86039047Y-156327142D01*
X85991428Y-156374761D01*
X85896190Y-156422380D01*
X85800952Y-156422380D01*
X85705714Y-156374761D01*
X85658095Y-156327142D01*
X85610476Y-156231904D01*
X85562857Y-156041428D01*
X85562857Y-155803333D01*
X85610476Y-155612857D01*
X85658095Y-155517619D01*
X85705714Y-155470000D01*
X85800952Y-155422380D01*
X101461904Y-156422380D02*
X101461904Y-155422380D01*
X101842857Y-155422380D01*
X101938095Y-155470000D01*
X101985714Y-155517619D01*
X102033333Y-155612857D01*
X102033333Y-155755714D01*
X101985714Y-155850952D01*
X101938095Y-155898571D01*
X101842857Y-155946190D01*
X101461904Y-155946190D01*
X102795238Y-155898571D02*
X102938095Y-155946190D01*
X102985714Y-155993809D01*
X103033333Y-156089047D01*
X103033333Y-156231904D01*
X102985714Y-156327142D01*
X102938095Y-156374761D01*
X102842857Y-156422380D01*
X102461904Y-156422380D01*
X102461904Y-155422380D01*
X102795238Y-155422380D01*
X102890476Y-155470000D01*
X102938095Y-155517619D01*
X102985714Y-155612857D01*
X102985714Y-155708095D01*
X102938095Y-155803333D01*
X102890476Y-155850952D01*
X102795238Y-155898571D01*
X102461904Y-155898571D01*
X103366666Y-155422380D02*
X104033333Y-155422380D01*
X103604761Y-156422380D01*
X91841714Y-156168380D02*
X91841714Y-155168380D01*
X92222666Y-155168380D01*
X92317904Y-155216000D01*
X92365523Y-155263619D01*
X92413142Y-155358857D01*
X92413142Y-155501714D01*
X92365523Y-155596952D01*
X92317904Y-155644571D01*
X92222666Y-155692190D01*
X91841714Y-155692190D01*
X93413142Y-156073142D02*
X93365523Y-156120761D01*
X93222666Y-156168380D01*
X93127428Y-156168380D01*
X92984571Y-156120761D01*
X92889333Y-156025523D01*
X92841714Y-155930285D01*
X92794095Y-155739809D01*
X92794095Y-155596952D01*
X92841714Y-155406476D01*
X92889333Y-155311238D01*
X92984571Y-155216000D01*
X93127428Y-155168380D01*
X93222666Y-155168380D01*
X93365523Y-155216000D01*
X93413142Y-155263619D01*
X94365523Y-156168380D02*
X93794095Y-156168380D01*
X94079809Y-156168380D02*
X94079809Y-155168380D01*
X93984571Y-155311238D01*
X93889333Y-155406476D01*
X93794095Y-155454095D01*
X94698857Y-155168380D02*
X95317904Y-155168380D01*
X94984571Y-155549333D01*
X95127428Y-155549333D01*
X95222666Y-155596952D01*
X95270285Y-155644571D01*
X95317904Y-155739809D01*
X95317904Y-155977904D01*
X95270285Y-156073142D01*
X95222666Y-156120761D01*
X95127428Y-156168380D01*
X94841714Y-156168380D01*
X94746476Y-156120761D01*
X94698857Y-156073142D01*
X155702380Y-140310952D02*
X154702380Y-140310952D01*
X154702380Y-139930000D01*
X154750000Y-139834761D01*
X154797619Y-139787142D01*
X154892857Y-139739523D01*
X155035714Y-139739523D01*
X155130952Y-139787142D01*
X155178571Y-139834761D01*
X155226190Y-139930000D01*
X155226190Y-140310952D01*
X154702380Y-139406190D02*
X155702380Y-139168095D01*
X154988095Y-138977619D01*
X155702380Y-138787142D01*
X154702380Y-138549047D01*
X155702380Y-138168095D02*
X154702380Y-138168095D01*
X155416666Y-137834761D01*
X154702380Y-137501428D01*
X155702380Y-137501428D01*
X154797619Y-137072857D02*
X154750000Y-137025238D01*
X154702380Y-136930000D01*
X154702380Y-136691904D01*
X154750000Y-136596666D01*
X154797619Y-136549047D01*
X154892857Y-136501428D01*
X154988095Y-136501428D01*
X155130952Y-136549047D01*
X155702380Y-137120476D01*
X155702380Y-136501428D01*
X155702380Y-131420952D02*
X154702380Y-131420952D01*
X154702380Y-131040000D01*
X154750000Y-130944761D01*
X154797619Y-130897142D01*
X154892857Y-130849523D01*
X155035714Y-130849523D01*
X155130952Y-130897142D01*
X155178571Y-130944761D01*
X155226190Y-131040000D01*
X155226190Y-131420952D01*
X154702380Y-130516190D02*
X155702380Y-130278095D01*
X154988095Y-130087619D01*
X155702380Y-129897142D01*
X154702380Y-129659047D01*
X155702380Y-129278095D02*
X154702380Y-129278095D01*
X155416666Y-128944761D01*
X154702380Y-128611428D01*
X155702380Y-128611428D01*
X155702380Y-127611428D02*
X155702380Y-128182857D01*
X155702380Y-127897142D02*
X154702380Y-127897142D01*
X154845238Y-127992380D01*
X154940476Y-128087619D01*
X154988095Y-128182857D01*
X125285714Y-149304761D02*
X125428571Y-149352380D01*
X125666666Y-149352380D01*
X125761904Y-149304761D01*
X125809523Y-149257142D01*
X125857142Y-149161904D01*
X125857142Y-149066666D01*
X125809523Y-148971428D01*
X125761904Y-148923809D01*
X125666666Y-148876190D01*
X125476190Y-148828571D01*
X125380952Y-148780952D01*
X125333333Y-148733333D01*
X125285714Y-148638095D01*
X125285714Y-148542857D01*
X125333333Y-148447619D01*
X125380952Y-148400000D01*
X125476190Y-148352380D01*
X125714285Y-148352380D01*
X125857142Y-148400000D01*
X126285714Y-148828571D02*
X126619047Y-148828571D01*
X126761904Y-149352380D02*
X126285714Y-149352380D01*
X126285714Y-148352380D01*
X126761904Y-148352380D01*
X127761904Y-149352380D02*
X127428571Y-148876190D01*
X127190476Y-149352380D02*
X127190476Y-148352380D01*
X127571428Y-148352380D01*
X127666666Y-148400000D01*
X127714285Y-148447619D01*
X127761904Y-148542857D01*
X127761904Y-148685714D01*
X127714285Y-148780952D01*
X127666666Y-148828571D01*
X127571428Y-148876190D01*
X127190476Y-148876190D01*
X128095238Y-148352380D02*
X128714285Y-148352380D01*
X128380952Y-148733333D01*
X128523809Y-148733333D01*
X128619047Y-148780952D01*
X128666666Y-148828571D01*
X128714285Y-148923809D01*
X128714285Y-149161904D01*
X128666666Y-149257142D01*
X128619047Y-149304761D01*
X128523809Y-149352380D01*
X128238095Y-149352380D01*
X128142857Y-149304761D01*
X128095238Y-149257142D01*
X75755714Y-149304761D02*
X75898571Y-149352380D01*
X76136666Y-149352380D01*
X76231904Y-149304761D01*
X76279523Y-149257142D01*
X76327142Y-149161904D01*
X76327142Y-149066666D01*
X76279523Y-148971428D01*
X76231904Y-148923809D01*
X76136666Y-148876190D01*
X75946190Y-148828571D01*
X75850952Y-148780952D01*
X75803333Y-148733333D01*
X75755714Y-148638095D01*
X75755714Y-148542857D01*
X75803333Y-148447619D01*
X75850952Y-148400000D01*
X75946190Y-148352380D01*
X76184285Y-148352380D01*
X76327142Y-148400000D01*
X76755714Y-148828571D02*
X77089047Y-148828571D01*
X77231904Y-149352380D02*
X76755714Y-149352380D01*
X76755714Y-148352380D01*
X77231904Y-148352380D01*
X78231904Y-149352380D02*
X77898571Y-148876190D01*
X77660476Y-149352380D02*
X77660476Y-148352380D01*
X78041428Y-148352380D01*
X78136666Y-148400000D01*
X78184285Y-148447619D01*
X78231904Y-148542857D01*
X78231904Y-148685714D01*
X78184285Y-148780952D01*
X78136666Y-148828571D01*
X78041428Y-148876190D01*
X77660476Y-148876190D01*
X78612857Y-148447619D02*
X78660476Y-148400000D01*
X78755714Y-148352380D01*
X78993809Y-148352380D01*
X79089047Y-148400000D01*
X79136666Y-148447619D01*
X79184285Y-148542857D01*
X79184285Y-148638095D01*
X79136666Y-148780952D01*
X78565238Y-149352380D01*
X79184285Y-149352380D01*
X59784761Y-91884285D02*
X59832380Y-91741428D01*
X59832380Y-91503333D01*
X59784761Y-91408095D01*
X59737142Y-91360476D01*
X59641904Y-91312857D01*
X59546666Y-91312857D01*
X59451428Y-91360476D01*
X59403809Y-91408095D01*
X59356190Y-91503333D01*
X59308571Y-91693809D01*
X59260952Y-91789047D01*
X59213333Y-91836666D01*
X59118095Y-91884285D01*
X59022857Y-91884285D01*
X58927619Y-91836666D01*
X58880000Y-91789047D01*
X58832380Y-91693809D01*
X58832380Y-91455714D01*
X58880000Y-91312857D01*
X59308571Y-90884285D02*
X59308571Y-90550952D01*
X59832380Y-90408095D02*
X59832380Y-90884285D01*
X58832380Y-90884285D01*
X58832380Y-90408095D01*
X59832380Y-89408095D02*
X59356190Y-89741428D01*
X59832380Y-89979523D02*
X58832380Y-89979523D01*
X58832380Y-89598571D01*
X58880000Y-89503333D01*
X58927619Y-89455714D01*
X59022857Y-89408095D01*
X59165714Y-89408095D01*
X59260952Y-89455714D01*
X59308571Y-89503333D01*
X59356190Y-89598571D01*
X59356190Y-89979523D01*
X59832380Y-88455714D02*
X59832380Y-89027142D01*
X59832380Y-88741428D02*
X58832380Y-88741428D01*
X58975238Y-88836666D01*
X59070476Y-88931904D01*
X59118095Y-89027142D01*
X155654761Y-152526666D02*
X155702380Y-152383809D01*
X155702380Y-152145714D01*
X155654761Y-152050476D01*
X155607142Y-152002857D01*
X155511904Y-151955238D01*
X155416666Y-151955238D01*
X155321428Y-152002857D01*
X155273809Y-152050476D01*
X155226190Y-152145714D01*
X155178571Y-152336190D01*
X155130952Y-152431428D01*
X155083333Y-152479047D01*
X154988095Y-152526666D01*
X154892857Y-152526666D01*
X154797619Y-152479047D01*
X154750000Y-152431428D01*
X154702380Y-152336190D01*
X154702380Y-152098095D01*
X154750000Y-151955238D01*
X155178571Y-151526666D02*
X155178571Y-151193333D01*
X155702380Y-151050476D02*
X155702380Y-151526666D01*
X154702380Y-151526666D01*
X154702380Y-151050476D01*
X155702380Y-150050476D02*
X155226190Y-150383809D01*
X155702380Y-150621904D02*
X154702380Y-150621904D01*
X154702380Y-150240952D01*
X154750000Y-150145714D01*
X154797619Y-150098095D01*
X154892857Y-150050476D01*
X155035714Y-150050476D01*
X155130952Y-150098095D01*
X155178571Y-150145714D01*
X155226190Y-150240952D01*
X155226190Y-150621904D01*
X154702380Y-149764761D02*
X155702380Y-149431428D01*
X154702380Y-149098095D01*
X154702380Y-148574285D02*
X154702380Y-148383809D01*
X154750000Y-148288571D01*
X154845238Y-148193333D01*
X155035714Y-148145714D01*
X155369047Y-148145714D01*
X155559523Y-148193333D01*
X155654761Y-148288571D01*
X155702380Y-148383809D01*
X155702380Y-148574285D01*
X155654761Y-148669523D01*
X155559523Y-148764761D01*
X155369047Y-148812380D01*
X155035714Y-148812380D01*
X154845238Y-148764761D01*
X154750000Y-148669523D01*
X154702380Y-148574285D01*
X155702380Y-147193333D02*
X155702380Y-147764761D01*
X155702380Y-147479047D02*
X154702380Y-147479047D01*
X154845238Y-147574285D01*
X154940476Y-147669523D01*
X154988095Y-147764761D01*
X59832380Y-110664285D02*
X58832380Y-110664285D01*
X58832380Y-110426190D01*
X58880000Y-110283333D01*
X58975238Y-110188095D01*
X59070476Y-110140476D01*
X59260952Y-110092857D01*
X59403809Y-110092857D01*
X59594285Y-110140476D01*
X59689523Y-110188095D01*
X59784761Y-110283333D01*
X59832380Y-110426190D01*
X59832380Y-110664285D01*
X59308571Y-109664285D02*
X59308571Y-109330952D01*
X59832380Y-109188095D02*
X59832380Y-109664285D01*
X58832380Y-109664285D01*
X58832380Y-109188095D01*
X59308571Y-108426190D02*
X59356190Y-108283333D01*
X59403809Y-108235714D01*
X59499047Y-108188095D01*
X59641904Y-108188095D01*
X59737142Y-108235714D01*
X59784761Y-108283333D01*
X59832380Y-108378571D01*
X59832380Y-108759523D01*
X58832380Y-108759523D01*
X58832380Y-108426190D01*
X58880000Y-108330952D01*
X58927619Y-108283333D01*
X59022857Y-108235714D01*
X59118095Y-108235714D01*
X59213333Y-108283333D01*
X59260952Y-108330952D01*
X59308571Y-108426190D01*
X59308571Y-108759523D01*
X58832380Y-107759523D02*
X59641904Y-107759523D01*
X59737142Y-107711904D01*
X59784761Y-107664285D01*
X59832380Y-107569047D01*
X59832380Y-107378571D01*
X59784761Y-107283333D01*
X59737142Y-107235714D01*
X59641904Y-107188095D01*
X58832380Y-107188095D01*
X58880000Y-106188095D02*
X58832380Y-106283333D01*
X58832380Y-106426190D01*
X58880000Y-106569047D01*
X58975238Y-106664285D01*
X59070476Y-106711904D01*
X59260952Y-106759523D01*
X59403809Y-106759523D01*
X59594285Y-106711904D01*
X59689523Y-106664285D01*
X59784761Y-106569047D01*
X59832380Y-106426190D01*
X59832380Y-106330952D01*
X59784761Y-106188095D01*
X59737142Y-106140476D01*
X59403809Y-106140476D01*
X59403809Y-106330952D01*
X59832380Y-105188095D02*
X59832380Y-105759523D01*
X59832380Y-105473809D02*
X58832380Y-105473809D01*
X58975238Y-105569047D01*
X59070476Y-105664285D01*
X59118095Y-105759523D01*
X62952380Y-147168904D02*
X62952380Y-146597476D01*
X63952380Y-146883190D02*
X62952380Y-146883190D01*
X63952380Y-146264142D02*
X63285714Y-146264142D01*
X62952380Y-146264142D02*
X63000000Y-146311761D01*
X63047619Y-146264142D01*
X63000000Y-146216523D01*
X62952380Y-146264142D01*
X63047619Y-146264142D01*
X63952380Y-145787952D02*
X63285714Y-145787952D01*
X63476190Y-145787952D02*
X63380952Y-145740333D01*
X63333333Y-145692714D01*
X63285714Y-145597476D01*
X63285714Y-145502238D01*
X63904761Y-144787952D02*
X63952380Y-144883190D01*
X63952380Y-145073666D01*
X63904761Y-145168904D01*
X63809523Y-145216523D01*
X63428571Y-145216523D01*
X63333333Y-145168904D01*
X63285714Y-145073666D01*
X63285714Y-144883190D01*
X63333333Y-144787952D01*
X63428571Y-144740333D01*
X63523809Y-144740333D01*
X63619047Y-145216523D01*
X63285714Y-144454619D02*
X63285714Y-144073666D01*
X62952380Y-144311761D02*
X63809523Y-144311761D01*
X63904761Y-144264142D01*
X63952380Y-144168904D01*
X63952380Y-144073666D01*
X63285714Y-143883190D02*
X63285714Y-143502238D01*
X62952380Y-143740333D02*
X63809523Y-143740333D01*
X63904761Y-143692714D01*
X63952380Y-143597476D01*
X63952380Y-143502238D01*
X63904761Y-142787952D02*
X63952380Y-142883190D01*
X63952380Y-143073666D01*
X63904761Y-143168904D01*
X63809523Y-143216523D01*
X63428571Y-143216523D01*
X63333333Y-143168904D01*
X63285714Y-143073666D01*
X63285714Y-142883190D01*
X63333333Y-142787952D01*
X63428571Y-142740333D01*
X63523809Y-142740333D01*
X63619047Y-143216523D01*
X61761619Y-126515714D02*
X61714000Y-126610952D01*
X61618761Y-126706190D01*
X61475904Y-126849047D01*
X61428285Y-126944285D01*
X61428285Y-127039523D01*
X61666380Y-126991904D02*
X61618761Y-127087142D01*
X61523523Y-127182380D01*
X61333047Y-127230000D01*
X60999714Y-127230000D01*
X60809238Y-127182380D01*
X60714000Y-127087142D01*
X60666380Y-126991904D01*
X60666380Y-126801428D01*
X60714000Y-126706190D01*
X60809238Y-126610952D01*
X60999714Y-126563333D01*
X61333047Y-126563333D01*
X61523523Y-126610952D01*
X61618761Y-126706190D01*
X61666380Y-126801428D01*
X61666380Y-126991904D01*
X61142571Y-126134761D02*
X61142571Y-125801428D01*
X61666380Y-125658571D02*
X61666380Y-126134761D01*
X60666380Y-126134761D01*
X60666380Y-125658571D01*
X61666380Y-125230000D02*
X60666380Y-125230000D01*
X60761619Y-124801428D02*
X60714000Y-124753809D01*
X60666380Y-124658571D01*
X60666380Y-124420476D01*
X60714000Y-124325238D01*
X60761619Y-124277619D01*
X60856857Y-124230000D01*
X60952095Y-124230000D01*
X61094952Y-124277619D01*
X61666380Y-124849047D01*
X61666380Y-124230000D01*
X150344285Y-114847619D02*
X150249047Y-114800000D01*
X150153809Y-114704761D01*
X150010952Y-114561904D01*
X149915714Y-114514285D01*
X149820476Y-114514285D01*
X149868095Y-114752380D02*
X149772857Y-114704761D01*
X149677619Y-114609523D01*
X149630000Y-114419047D01*
X149630000Y-114085714D01*
X149677619Y-113895238D01*
X149772857Y-113800000D01*
X149868095Y-113752380D01*
X150058571Y-113752380D01*
X150153809Y-113800000D01*
X150249047Y-113895238D01*
X150296666Y-114085714D01*
X150296666Y-114419047D01*
X150249047Y-114609523D01*
X150153809Y-114704761D01*
X150058571Y-114752380D01*
X149868095Y-114752380D01*
X150725238Y-114228571D02*
X151058571Y-114228571D01*
X151201428Y-114752380D02*
X150725238Y-114752380D01*
X150725238Y-113752380D01*
X151201428Y-113752380D01*
X151630000Y-114752380D02*
X151630000Y-113752380D01*
X152630000Y-114752380D02*
X152058571Y-114752380D01*
X152344285Y-114752380D02*
X152344285Y-113752380D01*
X152249047Y-113895238D01*
X152153809Y-113990476D01*
X152058571Y-114038095D01*
M02*
