G04 #@! TF.GenerationSoftware,KiCad,Pcbnew,5.0.0-rc1-44a33f2~62~ubuntu16.04.1*
G04 #@! TF.CreationDate,2018-05-19T12:26:42+02:00*
G04 #@! TF.ProjectId,shield2018,736869656C64323031382E6B69636164,1.0*
G04 #@! TF.SameCoordinates,Original*
G04 #@! TF.FileFunction,Soldermask,Bot*
G04 #@! TF.FilePolarity,Negative*
%FSLAX46Y46*%
G04 Gerber Fmt 4.6, Leading zero omitted, Abs format (unit mm)*
G04 Created by KiCad (PCBNEW 5.0.0-rc1-44a33f2~62~ubuntu16.04.1) date Sat May 19 12:26:42 2018*
%MOMM*%
%LPD*%
G01*
G04 APERTURE LIST*
%ADD10R,2.100000X2.100000*%
%ADD11O,2.100000X2.100000*%
%ADD12C,3.000000*%
%ADD13C,1.800000*%
%ADD14R,2.200000X2.200000*%
%ADD15O,2.600000X2.140000*%
%ADD16R,2.600000X2.140000*%
%ADD17O,2.140000X2.600000*%
%ADD18R,2.140000X2.600000*%
%ADD19R,1.000000X1.950000*%
%ADD20C,1.924000*%
G04 APERTURE END LIST*
D10*
X78740000Y-82550000D03*
D11*
X76200000Y-82550000D03*
X78740000Y-85090000D03*
X76200000Y-85090000D03*
X78740000Y-87630000D03*
X76200000Y-87630000D03*
X78740000Y-90170000D03*
X76200000Y-90170000D03*
X78740000Y-92710000D03*
X76200000Y-92710000D03*
X78740000Y-95250000D03*
X76200000Y-95250000D03*
X78740000Y-97790000D03*
X76200000Y-97790000D03*
X78740000Y-100330000D03*
X76200000Y-100330000D03*
X78740000Y-102870000D03*
X76200000Y-102870000D03*
X78740000Y-105410000D03*
X76200000Y-105410000D03*
X78740000Y-107950000D03*
X76200000Y-107950000D03*
X78740000Y-110490000D03*
X76200000Y-110490000D03*
X78740000Y-113030000D03*
X76200000Y-113030000D03*
X78740000Y-115570000D03*
X76200000Y-115570000D03*
X78740000Y-118110000D03*
X76200000Y-118110000D03*
X78740000Y-120650000D03*
X76200000Y-120650000D03*
X78740000Y-123190000D03*
X76200000Y-123190000D03*
X78740000Y-125730000D03*
X76200000Y-125730000D03*
X78740000Y-128270000D03*
X76200000Y-128270000D03*
D10*
X139700000Y-82550000D03*
D11*
X137160000Y-82550000D03*
X139700000Y-85090000D03*
X137160000Y-85090000D03*
X139700000Y-87630000D03*
X137160000Y-87630000D03*
X139700000Y-90170000D03*
X137160000Y-90170000D03*
X139700000Y-92710000D03*
X137160000Y-92710000D03*
X139700000Y-95250000D03*
X137160000Y-95250000D03*
X139700000Y-97790000D03*
X137160000Y-97790000D03*
X139700000Y-100330000D03*
X137160000Y-100330000D03*
X139700000Y-102870000D03*
X137160000Y-102870000D03*
X139700000Y-105410000D03*
X137160000Y-105410000D03*
X139700000Y-107950000D03*
X137160000Y-107950000D03*
X139700000Y-110490000D03*
X137160000Y-110490000D03*
X139700000Y-113030000D03*
X137160000Y-113030000D03*
X139700000Y-115570000D03*
X137160000Y-115570000D03*
X139700000Y-118110000D03*
X137160000Y-118110000D03*
X139700000Y-120650000D03*
X137160000Y-120650000D03*
X139700000Y-123190000D03*
X137160000Y-123190000D03*
X139700000Y-125730000D03*
X137160000Y-125730000D03*
X139700000Y-128270000D03*
X137160000Y-128270000D03*
D12*
X160020000Y-146050000D03*
X160020000Y-148590000D03*
X160020000Y-153670000D03*
X160020000Y-156210000D03*
X113030000Y-153670000D03*
X110490000Y-153670000D03*
X121920000Y-153670000D03*
X119380000Y-153670000D03*
X130810000Y-153670000D03*
X128270000Y-153670000D03*
X139700000Y-153670000D03*
X137160000Y-153670000D03*
D13*
X109855000Y-146050000D03*
X111125000Y-143510000D03*
X112395000Y-146050000D03*
X113665000Y-143510000D03*
D14*
X107683300Y-144729200D03*
D15*
X64770000Y-134620000D03*
D16*
X64770000Y-137160000D03*
D17*
X92710000Y-144780000D03*
X95250000Y-144780000D03*
D18*
X97790000Y-144780000D03*
D15*
X151130000Y-85090000D03*
X151130000Y-82550000D03*
D16*
X151130000Y-80010000D03*
D15*
X151130000Y-96520000D03*
X151130000Y-93980000D03*
D16*
X151130000Y-91440000D03*
D15*
X151130000Y-121920000D03*
X151130000Y-119380000D03*
D16*
X151130000Y-116840000D03*
D19*
X123825000Y-129380000D03*
X122555000Y-129380000D03*
X121285000Y-129380000D03*
X120015000Y-129380000D03*
X120015000Y-134780000D03*
X121285000Y-134780000D03*
X122555000Y-134780000D03*
X123825000Y-134780000D03*
D12*
X77470000Y-153670000D03*
X74930000Y-153670000D03*
X86360000Y-153670000D03*
X83820000Y-153670000D03*
X104140000Y-153670000D03*
X101600000Y-153670000D03*
X94996000Y-153416000D03*
X92456000Y-153416000D03*
D15*
X151130000Y-139700000D03*
D16*
X151130000Y-137160000D03*
D15*
X151130000Y-130810000D03*
D16*
X151130000Y-128270000D03*
D17*
X124460000Y-144780000D03*
X127000000Y-144780000D03*
D18*
X129540000Y-144780000D03*
D17*
X74930000Y-144780000D03*
X77470000Y-144780000D03*
D18*
X80010000Y-144780000D03*
D15*
X63500000Y-87630000D03*
X63500000Y-90170000D03*
D16*
X63500000Y-92710000D03*
D15*
X151130000Y-153670000D03*
X151130000Y-151130000D03*
X151130000Y-148590000D03*
D16*
X151130000Y-146050000D03*
D15*
X63500000Y-104140000D03*
X63500000Y-106680000D03*
X63500000Y-109220000D03*
D16*
X63500000Y-111760000D03*
D10*
X66040000Y-144780000D03*
D20*
X64770000Y-119380000D03*
X66040000Y-123190000D03*
X63500000Y-121920000D03*
X63500000Y-124460000D03*
X66040000Y-125730000D03*
X63500000Y-127000000D03*
X66040000Y-128270000D03*
X151130000Y-111760000D03*
X149860000Y-107950000D03*
X152400000Y-109220000D03*
X152400000Y-106680000D03*
X149860000Y-105410000D03*
X152400000Y-104140000D03*
X149860000Y-102870000D03*
M02*
