M48
;DRILL file {KiCad 5.0.0-rc1-44a33f2~62~ubuntu16.04.1} date Sat May 19 12:27:13 2018
;FORMAT={-:-/ absolute / inch / decimal}
FMAT,2
INCH,TZ
T1C0.0157
T2C0.0300
T3C0.0315
T4C0.0394
T5C0.0472
T6C0.0512
T7C0.0472
T8C0.0591
%
G90
G05
M72
T1
X4.66Y-5.44
X4.78Y-5.48
X5.Y-5.44
X5.68Y-3.74
X5.68Y-3.86
X6.16Y-4.2
X6.16Y-5.88
T2
X5.9Y-4.05
X5.9Y-4.15
X5.9Y-4.25
X6.Y-4.1
X6.Y-4.2
X6.Y-4.3
X2.5Y-4.8
X2.5Y-4.9
X2.5Y-5.
X2.6Y-4.85
X2.6Y-4.95
X2.6Y-5.05
T3
X4.325Y-5.75
X4.375Y-5.65
X4.425Y-5.75
X4.475Y-5.65
T4
X2.6Y-5.7
X3.Y-3.25
X3.Y-3.35
X3.Y-3.45
X3.Y-3.55
X3.Y-3.65
X3.Y-3.75
X3.Y-3.85
X3.Y-3.95
X3.Y-4.05
X3.Y-4.15
X3.Y-4.25
X3.Y-4.35
X3.Y-4.45
X3.Y-4.55
X3.Y-4.65
X3.Y-4.75
X3.Y-4.85
X3.Y-4.95
X3.Y-5.05
X3.1Y-3.25
X3.1Y-3.35
X3.1Y-3.45
X3.1Y-3.55
X3.1Y-3.65
X3.1Y-3.75
X3.1Y-3.85
X3.1Y-3.95
X3.1Y-4.05
X3.1Y-4.15
X3.1Y-4.25
X3.1Y-4.35
X3.1Y-4.45
X3.1Y-4.55
X3.1Y-4.65
X3.1Y-4.75
X3.1Y-4.85
X3.1Y-4.95
X3.1Y-5.05
X5.4Y-3.25
X5.4Y-3.35
X5.4Y-3.45
X5.4Y-3.55
X5.4Y-3.65
X5.4Y-3.75
X5.4Y-3.85
X5.4Y-3.95
X5.4Y-4.05
X5.4Y-4.15
X5.4Y-4.25
X5.4Y-4.35
X5.4Y-4.45
X5.4Y-4.55
X5.4Y-4.65
X5.4Y-4.75
X5.4Y-4.85
X5.4Y-4.95
X5.4Y-5.05
X5.5Y-3.25
X5.5Y-3.35
X5.5Y-3.45
X5.5Y-3.55
X5.5Y-3.65
X5.5Y-3.75
X5.5Y-3.85
X5.5Y-3.95
X5.5Y-4.05
X5.5Y-4.15
X5.5Y-4.25
X5.5Y-4.35
X5.5Y-4.45
X5.5Y-4.55
X5.5Y-4.65
X5.5Y-4.75
X5.5Y-4.85
X5.5Y-4.95
X5.5Y-5.05
T5
X4.9Y-5.7
X5.Y-5.7
X5.1Y-5.7
X5.95Y-5.75
X5.95Y-5.85
X5.95Y-5.95
X5.95Y-6.05
X5.95Y-4.6
X5.95Y-4.7
X5.95Y-4.8
X3.65Y-5.7
X3.75Y-5.7
X3.85Y-5.7
X5.95Y-5.05
X5.95Y-5.15
X5.95Y-3.15
X5.95Y-3.25
X5.95Y-3.35
X2.5Y-3.45
X2.5Y-3.55
X2.5Y-3.65
X5.95Y-3.6
X5.95Y-3.7
X5.95Y-3.8
X2.5Y-4.1
X2.5Y-4.2
X2.5Y-4.3
X2.5Y-4.4
X2.55Y-5.3
X2.55Y-5.4
X2.95Y-5.7
X3.05Y-5.7
X3.15Y-5.7
X5.95Y-5.4
X5.95Y-5.5
T6
X4.7Y-6.05
X4.8Y-6.05
X4.35Y-6.05
X4.45Y-6.05
X6.3Y-6.05
X6.3Y-6.15
X5.05Y-6.05
X5.15Y-6.05
X2.95Y-6.05
X3.05Y-6.05
X4.Y-6.05
X4.1Y-6.05
X3.64Y-6.04
X3.74Y-6.04
X3.3Y-6.05
X3.4Y-6.05
X6.3Y-5.75
X6.3Y-5.85
X5.4Y-6.05
X5.5Y-6.05
T7
X5.95Y-4.4
X2.55Y-4.7
T8
X4.2395Y-5.698
T0
M30
